<svg width="21.167mm" height="21.167mm" version="1.1" viewBox="0 0 21.167 21.167" xmlns="http://www.w3.org/2000/svg"><g transform="translate(-134.47 -139.59)"><path d="m152.82 139.59h-10.583v16.228h13.406v-13.406l-2.8222-2.8222" fill="#ececec"/><path d="m146.82 155.81h-1.4111v-10.583h1.4111v10.583" fill="#b6c1ce"/><path d="m149.64 152.29v-0.70555h2.4694c0.19509 0 0.35278-0.1577 0.35278-0.35278 0-0.19509-0.15769-0.35278-0.35278-0.35278h-2.4694v-0.70556h4.2333v0.70556h-0.35278c-0.19508 0-0.35278 0.15769-0.35278 0.35278 0 0.19508 0.1577 0.35278 0.35278 0.35278h0.35278v0.70555zm0-3.5278h4.2333v0.70556h-4.2333zm0-1.4111h4.2333v0.70556h-4.2333zm0-1.4111h4.2333v0.70556h-4.2333zm0-1.4111h4.2333v0.70555h-4.2333zm4.5861-0.70556h-4.9389c-0.19509 0-0.35278 0.1577-0.35278 0.35278v1.0583h-3.175c-0.19509 0-0.35278 0.1577-0.35278 0.35278 0 0.19509 0.15769 0.35278 0.35278 0.35278h3.175v0.70556h-1.0583c-0.19509 0-0.35278 0.15769-0.35278 0.35277 0 0.19509 0.15769 0.35278 0.35278 0.35278h1.0583v0.70556h-3.175c-0.19509 0-0.35278 0.15769-0.35278 0.35277 0 0.19509 0.15769 0.35278 0.35278 0.35278h3.175v0.70556h-3.175c-0.19509 0-0.35278 0.15769-0.35278 0.35278 0 0.19508 0.15769 0.35277 0.35278 0.35277h3.175v0.70556h-3.175c-0.19509 0-0.35278 0.15769-0.35278 0.35278 0 0.19508 0.15769 0.35278 0.35278 0.35278h3.175v1.0583c0 0.19508 0.15769 0.35278 0.35278 0.35278h4.9389c0.19508 0 0.35278-0.1577 0.35278-0.35278v-8.4667c0-0.19508-0.1577-0.35278-0.35278-0.35278" fill="#0fa196"/><path d="m145.76 147.35h0.70556c0.19508 0 0.35277-0.15769 0.35277-0.35278 0-0.19508-0.15769-0.35277-0.35277-0.35277h-0.70556c-0.19509 0-0.35278 0.15769-0.35278 0.35277 0 0.19509 0.15769 0.35278 0.35278 0.35278" fill="#0fa196"/><path d="m152.82 139.59v2.8222h2.8222z" fill="#fea82f"/><path d="m145.05 145.23h-9.875c-0.39053 0-0.70697 0.31645-0.70697 0.70697v14.108c0 0.39017 0.31644 0.70697 0.70697 0.70697h9.875c0.39053 0 0.70697-0.3168 0.70697-0.70697v-14.108c0-0.39052-0.31644-0.70697-0.70697-0.70697" fill="#d3a06c"/><path d="m139.76 154.75h-3.5278v-3.5278h3.5278v3.5278" fill="#ececec"/><path d="m144 150.17h-7.7611v-3.5278h7.7611v3.5278" fill="#39c3fc"/><path d="m144 150.17h-7.7611v-1.0583h7.7611v1.0583" fill="#148ce0"/><path d="m139.76 154.05h-3.5278v0.70556h3.5278v-0.70556" fill="#b6c1ce"/><path d="m144 154.75h-3.5278v-3.5278h3.5278v3.5278" fill="#ececec"/><path d="m144 154.05h-3.5278v0.70556h3.5278v-0.70556" fill="#b6c1ce"/><path d="m139.76 158.99h-3.5278v-3.5278h3.5278v3.5278" fill="#ececec"/><path d="m139.76 158.28h-3.5278v0.70556h3.5278v-0.70556" fill="#b6c1ce"/><path d="m144 158.99h-3.5278v-3.5278h3.5278v3.5278" fill="#ececec"/><path d="m144 158.28h-3.5278v0.70556h3.5278v-0.70556" fill="#b6c1ce"/><g fill="#31353d"><path d="m138.7 152.64h-0.35277v-0.35278c0-0.19509-0.1577-0.35278-0.35278-0.35278-0.19509 0-0.35278 0.15769-0.35278 0.35278v0.35278h-0.35278c-0.19508 0-0.35278 0.15769-0.35278 0.35278 0 0.19508 0.1577 0.35277 0.35278 0.35277h0.35278v0.35278c0 0.19509 0.15769 0.35278 0.35278 0.35278 0.19508 0 0.35278-0.15769 0.35278-0.35278v-0.35278h0.35277c0.19509 0 0.35278-0.15769 0.35278-0.35277 0-0.19509-0.15769-0.35278-0.35278-0.35278"/><path d="m141.53 153.34h1.4111c0.19508 0 0.35278-0.15769 0.35278-0.35277 0-0.19509-0.1577-0.35278-0.35278-0.35278h-1.4111c-0.19509 0-0.35278 0.15769-0.35278 0.35278 0 0.19508 0.15769 0.35277 0.35278 0.35277"/><path d="m142.94 156.17h-1.4111c-0.19509 0-0.35278 0.15769-0.35278 0.35277 0 0.19509 0.15769 0.35278 0.35278 0.35278h1.4111c0.19508 0 0.35278-0.15769 0.35278-0.35278 0-0.19508-0.1577-0.35277-0.35278-0.35277"/><path d="m142.94 157.58h-1.4111c-0.19509 0-0.35278 0.15769-0.35278 0.35278 0 0.19508 0.15769 0.35277 0.35278 0.35277h1.4111c0.19508 0 0.35278-0.15769 0.35278-0.35277 0-0.19509-0.1577-0.35278-0.35278-0.35278"/><path d="m138.95 156.27c-0.13794-0.13794-0.36089-0.13794-0.49883 0l-0.45614 0.45614-0.45614-0.45614c-0.13794-0.13794-0.3609-0.13794-0.49883 0-0.13794 0.13794-0.13794 0.36089 0 0.49883l0.45614 0.45614-0.45614 0.45614c-0.13794 0.13794-0.13794 0.36089 0 0.49883 0.0688 0.0688 0.1591 0.10336 0.24941 0.10336 0.0903 0 0.18063-0.0346 0.24942-0.10336l0.45614-0.45614 0.45614 0.45614c0.0688 0.0688 0.1591 0.10336 0.24941 0.10336 0.0903 0 0.18063-0.0346 0.24942-0.10336 0.13793-0.13794 0.13793-0.36089 0-0.49883l-0.45614-0.45614 0.45614-0.45614c0.13793-0.13794 0.13793-0.36089 0-0.49883"/></g><path d="m141.17 148.05h-3.8806c-0.19508 0-0.35278-0.15769-0.35278-0.35278s0.1577-0.35278 0.35278-0.35278h3.8806c0.19509 0 0.35278 0.15769 0.35278 0.35278s-0.15769 0.35278-0.35278 0.35278" fill="#fff"/><path d="m142.94 147.7c0 0.19509-0.15769 0.35278-0.35278 0.35278s-0.35278-0.15769-0.35278-0.35278 0.15769-0.35278 0.35278-0.35278 0.35278 0.15769 0.35278 0.35278" fill="#fff"/><path d="m155.64 143.11-2.8222-0.70556h2.8222z" fill="#b6c1ce"/></g></svg>
