<?xml version="1.0" encoding="UTF-8" standalone="no"?>
<!-- Created with Inkscape (http://www.inkscape.org/) -->

<svg
   xmlns:dc="http://purl.org/dc/elements/1.1/"
   xmlns:cc="http://creativecommons.org/ns#"
   xmlns:rdf="http://www.w3.org/1999/02/22-rdf-syntax-ns#"
   xmlns:svg="http://www.w3.org/2000/svg"
   xmlns="http://www.w3.org/2000/svg"
   xmlns:sodipodi="http://sodipodi.sourceforge.net/DTD/sodipodi-0.dtd"
   xmlns:inkscape="http://www.inkscape.org/namespaces/inkscape"
   width="21.166677mm"
   height="21.16667mm"
   viewBox="0 0 21.166678 21.16667"
   version="1.1"
   id="svg3305"
   inkscape:version="0.92.3 (2405546, 2018-03-11)"
   sodipodi:docname="drawing.svg">
  <defs
     id="defs3299" />
  <sodipodi:namedview
     id="base"
     pagecolor="#ffffff"
     bordercolor="#666666"
     borderopacity="1.0"
     inkscape:pageopacity="0.0"
     inkscape:pageshadow="2"
     inkscape:zoom="1"
     inkscape:cx="-183.18813"
     inkscape:cy="74.498826"
     inkscape:document-units="mm"
     inkscape:current-layer="layer1"
     showgrid="false"
     inkscape:window-width="1920"
     inkscape:window-height="1018"
     inkscape:window-x="-8"
     inkscape:window-y="-8"
     inkscape:window-maximized="1"
     fit-margin-top="0"
     fit-margin-left="0"
     fit-margin-right="0"
     fit-margin-bottom="0" />
  <metadata
     id="metadata3302">
    <rdf:RDF>
      <cc:Work
         rdf:about="">
        <dc:format>image/svg+xml</dc:format>
        <dc:type
           rdf:resource="http://purl.org/dc/dcmitype/StillImage" />
        <dc:title></dc:title>
      </cc:Work>
    </rdf:RDF>
  </metadata>
  <g
     inkscape:label="Layer 1"
     inkscape:groupmode="layer"
     id="layer1"
     transform="translate(-31.459596,-147.37781)">
    <path
       d="m 50.509601,156.90281 c 0,5.26023 -4.264343,9.525 -9.525,9.525 -5.260658,0 -9.525001,-4.26477 -9.525001,-9.525 0,-5.26066 4.264343,-9.525 9.525001,-9.525 5.260657,0 9.525,4.26434 9.525,9.525"
       style="fill:#ececec;fill-opacity:1;fill-rule:nonzero;stroke:none;stroke-width:0.03527778"
       id="path1901"
       inkscape:connector-curvature="0" />
    <path
       d="m 40.984601,164.66392 c -4.96302,0 -9.037603,-3.79663 -9.482985,-8.64305 -0.02656,0.29033 -0.04202,0.58416 -0.04202,0.88194 0,5.26023 4.264343,9.525 9.525001,9.525 5.260657,0 9.525,-4.26477 9.525,-9.525 0,-0.29778 -0.01542,-0.59161 -0.04202,-0.88194 -0.445382,4.84642 -4.519965,8.64305 -9.482984,8.64305"
       style="fill:#b6c1ce;fill-opacity:1;fill-rule:nonzero;stroke:none;stroke-width:0.03527778"
       id="path1903"
       inkscape:connector-curvature="0" />
    <path
       d="m 48.392934,156.90281 c 0,4.09152 -3.316922,7.40833 -7.408333,7.40833 -4.091412,0 -7.408334,-3.31681 -7.408334,-7.40833 0,-4.09194 3.316922,-7.40833 7.408334,-7.40833 4.091411,0 7.408333,3.31639 7.408333,7.40833"
       style="fill:#fb5968;fill-opacity:1;fill-rule:nonzero;stroke:none;stroke-width:0.03527778"
       id="path1905"
       inkscape:connector-curvature="0" />
    <path
       d="m 46.276267,156.90281 c 0,2.92241 -2.369114,5.29167 -5.291666,5.29167 -2.922553,0 -5.291667,-2.36926 -5.291667,-5.29167 0,-2.92283 2.369114,-5.29167 5.291667,-5.29167 2.922552,0 5.291666,2.36884 5.291666,5.29167"
       style="fill:#ececec;fill-opacity:1;fill-rule:nonzero;stroke:none;stroke-width:0.03527778"
       id="path1907"
       inkscape:connector-curvature="0" />
    <path
       d="m 44.159601,156.90281 c 0,1.75327 -1.421448,3.175 -3.175,3.175 -1.753553,0 -3.175001,-1.42173 -3.175001,-3.175 0,-1.75369 1.421448,-3.175 3.175001,-3.175 1.753552,0 3.175,1.42131 3.175,3.175"
       style="fill:#fb5968;fill-opacity:1;fill-rule:nonzero;stroke:none;stroke-width:0.03527778"
       id="path1909"
       inkscape:connector-curvature="0" />
    <path
       d="m 42.042934,156.90281 c 0,0.58417 -0.473781,1.05833 -1.058333,1.05833 -0.584553,0 -1.058334,-0.47416 -1.058334,-1.05833 0,-0.58455 0.473781,-1.05833 1.058334,-1.05833 0.584552,0 1.058333,0.47378 1.058333,1.05833"
       style="fill:#ececec;fill-opacity:1;fill-rule:nonzero;stroke:none;stroke-width:0.03527778"
       id="path1911"
       inkscape:connector-curvature="0" />
    <path
       d="m 48.392934,168.54448 c -2.333978,0 -4.233333,-1.89936 -4.233333,-4.23334 0,-2.3344 1.899355,-4.23333 4.233333,-4.23333 2.333978,0 4.233334,1.89893 4.233334,4.23333 0,2.33398 -1.899356,4.23334 -4.233334,4.23334"
       style="fill:#fea82f;fill-opacity:1;fill-rule:nonzero;stroke:none;stroke-width:0.03527778"
       id="path1913"
       inkscape:connector-curvature="0" />
    <path
       d="m 48.392934,167.48614 c -2.154555,0 -3.934989,-1.6196 -4.196398,-3.70416 -0.02205,0.17349 -0.03693,0.34918 -0.03693,0.52916 0,2.33398 1.899355,4.23334 4.233333,4.23334 2.333978,0 4.233334,-1.89936 4.233334,-4.23334 0,-0.17998 -0.01489,-0.35567 -0.03694,-0.52916 -0.261408,2.08456 -2.041843,3.70416 -4.196398,3.70416"
       style="fill:#ff8031;fill-opacity:1;fill-rule:nonzero;stroke:none;stroke-width:0.03527778"
       id="path1915"
       inkscape:connector-curvature="0" />
    <path
       d="m 48.392934,163.95837 c -0.388867,0 -0.705556,-0.3168 -0.705556,-0.70556 0,-0.38943 0.316689,-0.70555 0.705556,-0.70555 0.388867,0 0.705556,0.31612 0.705556,0.70555 0,0.19512 0.157797,0.35278 0.352777,0.35278 0.194981,0 0.352778,-0.15766 0.352778,-0.35278 0,-0.65581 -0.451308,-1.20329 -1.058333,-1.36095 v -0.40294 c 0,-0.19512 -0.157797,-0.35278 -0.352778,-0.35278 -0.19498,0 -0.352778,0.15766 -0.352778,0.35278 v 0.40294 c -0.607024,0.15766 -1.058333,0.70514 -1.058333,1.36095 0,0.77791 0.632813,1.41111 1.411111,1.41111 0.388867,0 0.705556,0.31613 0.705556,0.70556 0,0.38876 -0.316689,0.70555 -0.705556,0.70555 -0.388867,0 -0.705556,-0.31679 -0.705556,-0.70555 0,-0.19512 -0.157797,-0.35278 -0.352777,-0.35278 -0.19498,0 -0.352778,0.15766 -0.352778,0.35278 0,0.65539 0.451309,1.2029 1.058333,1.36066 v 0.40323 c 0,0.19512 0.157798,0.35277 0.352778,0.35277 0.194981,0 0.352778,-0.15765 0.352778,-0.35277 v -0.40323 c 0.607025,-0.15776 1.058333,-0.70527 1.058333,-1.36066 0,-0.77858 -0.632777,-1.41111 -1.411111,-1.41111"
       style="fill:#31353d;fill-opacity:1;fill-rule:nonzero;stroke:none;stroke-width:0.03527778"
       id="path1917"
       inkscape:connector-curvature="0" />
    <path
       d="m 51.567934,164.31114 c 0,0.19474 -0.157797,0.35278 -0.352778,0.35278 -0.19498,0 -0.352777,-0.15804 -0.352777,-0.35278 0,-0.19512 0.157797,-0.35277 0.352777,-0.35277 0.194981,0 0.352778,0.15765 0.352778,0.35277"
       style="fill:#31353d;fill-opacity:1;fill-rule:nonzero;stroke:none;stroke-width:0.03527778"
       id="path1919"
       inkscape:connector-curvature="0" />
    <path
       d="m 45.92349,164.31114 c 0,0.19474 -0.157798,0.35278 -0.352778,0.35278 -0.19498,0 -0.352778,-0.15804 -0.352778,-0.35278 0,-0.19512 0.157798,-0.35277 0.352778,-0.35277 0.19498,0 0.352778,0.15765 0.352778,0.35277"
       style="fill:#31353d;fill-opacity:1;fill-rule:nonzero;stroke:none;stroke-width:0.03527778"
       id="path1921"
       inkscape:connector-curvature="0" />
    <path
       d="M 50.156823,149.1417 H 49.09849 c -0.19498,0 -0.352778,-0.15769 -0.352778,-0.35278 v -1.05833 c 0,-0.19509 0.157798,-0.35278 0.352778,-0.35278 0.19498,0 0.352777,0.15769 0.352777,0.35278 v 0.70555 h 0.705556 c 0.194981,0 0.352778,0.1577 0.352778,0.35278 0,0.19509 -0.157797,0.35278 -0.352778,0.35278"
       style="fill:#b27946;fill-opacity:1;fill-rule:nonzero;stroke:none;stroke-width:0.03527778"
       id="path1923"
       inkscape:connector-curvature="0" />
    <path
       d="m 49.09849,150.20003 h -1.058334 c -0.19498,0 -0.352778,-0.15765 -0.352778,-0.35278 v -1.05833 c 0,-0.19508 0.157798,-0.35278 0.352778,-0.35278 0.194981,0 0.352778,0.1577 0.352778,0.35278 v 0.70556 h 0.705556 c 0.19498,0 0.352777,0.15765 0.352777,0.35277 0,0.19513 -0.157797,0.35278 -0.352777,0.35278"
       style="fill:#b27946;fill-opacity:1;fill-rule:nonzero;stroke:none;stroke-width:0.03527778"
       id="path1925"
       inkscape:connector-curvature="0" />
    <path
       d="m 42.042934,156.19725 c -0.09028,0 -0.180517,-0.0346 -0.249414,-0.10336 -0.13783,-0.13794 -0.13783,-0.36089 0,-0.49883 l 7.055556,-7.05555 c 0.137795,-0.13794 0.361033,-0.13794 0.498828,0 0.13783,0.13793 0.13783,0.36089 0,0.49883 l -7.055556,7.05555 c -0.0689,0.0688 -0.159138,0.10336 -0.249414,0.10336"
       style="fill:#b27946;fill-opacity:1;fill-rule:nonzero;stroke:none;stroke-width:0.03527778"
       id="path1927"
       inkscape:connector-curvature="0" />
    <path
       d="m 43.101267,156.19725 h -1.058333 c -0.19498,0 -0.352778,-0.15765 -0.352778,-0.35277 v -1.05834 c 0,-0.19512 0.157798,-0.35277 0.352778,-0.35277 0.19498,0 0.352778,0.15765 0.352778,0.35277 v 0.70556 h 0.705555 c 0.194981,0 0.352778,0.15766 0.352778,0.35278 0,0.19512 -0.157797,0.35277 -0.352778,0.35277"
       style="fill:#31353d;fill-opacity:1;fill-rule:nonzero;stroke:none;stroke-width:0.03527778"
       id="path1929"
       inkscape:connector-curvature="0" />
    <path
       d="m 50.862379,162.149 c -0.08915,0 -0.17847,-0.0339 -0.247368,-0.10128 -0.598487,-0.58773 -1.387687,-0.91158 -2.222077,-0.91158 -0.83439,0 -1.623589,0.32385 -2.222077,0.91158 -0.139453,0.13586 -0.362444,0.13434 -0.499286,-0.004 -0.136419,-0.13892 -0.134197,-0.3623 0.0046,-0.49953 0.731485,-0.71783 1.696367,-1.11333 2.716812,-1.11333 1.020445,0 1.985328,0.3955 2.716812,1.11333 0.138748,0.13723 0.14097,0.36061 0.0046,0.49953 -0.06932,0.0703 -0.160549,0.10556 -0.251918,0.10556"
       style="fill:#ffffff;fill-opacity:1;fill-rule:nonzero;stroke:none;stroke-width:0.03527778"
       id="path1931"
       inkscape:connector-curvature="0" />
    <path
       d="m 51.920712,162.90003 c 0,0.19474 -0.157797,0.35278 -0.352778,0.35278 -0.19498,0 -0.352778,-0.15804 -0.352778,-0.35278 0,-0.19512 0.157798,-0.35277 0.352778,-0.35277 0.194981,0 0.352778,0.15765 0.352778,0.35277"
       style="fill:#ffffff;fill-opacity:1;fill-rule:nonzero;stroke:none;stroke-width:0.03527778"
       id="path1933"
       inkscape:connector-curvature="0" />
    <path
       d="m 35.339732,154.3438 c -0.05443,0 -0.109819,-0.0131 -0.161501,-0.0391 -0.173355,-0.0897 -0.240736,-0.30275 -0.151589,-0.47558 1.157288,-2.23876 3.439866,-3.62906 5.957959,-3.62906 0.19498,0 0.352777,0.15766 0.352777,0.35278 0,0.19512 -0.157797,0.35278 -0.352777,0.35278 -2.253087,0 -4.295776,1.24425 -5.330932,3.24735 -0.06272,0.12125 -0.186055,0.19086 -0.313937,0.19086"
       style="fill:#ffffff;fill-opacity:1;fill-rule:nonzero;stroke:none;stroke-width:0.03527778"
       id="path1935"
       inkscape:connector-curvature="0" />
    <path
       d="m 42.624735,150.67628 c 0,0.19431 -0.157762,0.35278 -0.352778,0.35278 -0.194557,0 -0.352777,-0.15847 -0.352777,-0.35278 0,-0.19512 0.15822,-0.35278 0.352777,-0.35278 0.195016,0 0.352778,0.15766 0.352778,0.35278"
       style="fill:#ffffff;fill-opacity:1;fill-rule:nonzero;stroke:none;stroke-width:0.03527778"
       id="path1937"
       inkscape:connector-curvature="0" />
  </g>
</svg>
