<svg width="21.167mm" height="20.108mm" version="1.1" viewBox="0 0 21.167 20.108" xmlns="http://www.w3.org/2000/svg"><g transform="translate(-67.972 -182.83)"><path d="m84.905 202.59c-2.3379 0-4.2333-1.8955-4.2333-4.2333 0-2.3382 1.8955-4.2333 4.2333-4.2333 2.3379 0 4.2333 1.8951 4.2333 4.2333 0 2.3379-1.8955 4.2333-4.2333 4.2333" fill="#48c397"/><path d="m84.905 201.53c-2.1583 0-3.9356-1.6168-4.1966-3.7042-0.02187 0.17349-0.03669 0.34918-0.03669 0.52916 0 2.3379 1.8955 4.2333 4.2333 4.2333 2.3379 0 4.2333-1.8955 4.2333-4.2333 0-0.17998-0.01482-0.35567-0.03669-0.52916-0.26106 2.0873-2.0384 3.7042-4.1966 3.7042" fill="#0fa196"/><path d="m72.205 202.59c-2.3379 0-4.2333-1.8955-4.2333-4.2333 0-2.3382 1.8955-4.2333 4.2333-4.2333 2.3379 0 4.2333 1.8951 4.2333 4.2333 0 2.3379-1.8955 4.2333-4.2333 4.2333" fill="#39c3fc"/><path d="m72.205 201.53c-2.1583 0-3.9356-1.6168-4.1966-3.7042-0.02187 0.17349-0.03669 0.34918-0.03669 0.52916 0 2.3379 1.8955 4.2333 4.2333 4.2333 2.3379 0 4.2333-1.8955 4.2333-4.2333 0-0.17998-0.01482-0.35567-0.03669-0.52916-0.26106 2.0873-2.0384 3.7042-4.1966 3.7042" fill="#148ce0"/><path d="m71.703 192c-0.0448 0-0.09066-9e-3 -0.13441-0.0269-0.17992-0.0744-0.26599-0.28042-0.19191-0.46027 0.40252-0.9755 0.99025-1.8457 1.747-2.5874 0.13935-0.13645 0.36266-0.13366 0.49883 5e-3 0.13617 0.13907 0.13406 0.36312-0.0049 0.49887-0.68827 0.67454-1.2227 1.4654-1.5882 2.3523-0.05609 0.13656-0.18768 0.2184-0.32632 0.2184" fill="#ffeaa7"/><path d="m78.555 191.3c-2.3379 0-4.2333-1.8955-4.2333-4.2333 0-2.3382 1.8955-4.2333 4.2333-4.2333s4.2333 1.8951 4.2333 4.2333c0 2.3379-1.8955 4.2333-4.2333 4.2333" fill="#fea82f"/><path d="m78.555 190.24c-2.1583 0-3.9356-1.6168-4.1966-3.7042-0.02187 0.17349-0.03669 0.34918-0.03669 0.52916 0 2.3379 1.8955 4.2333 4.2333 4.2333s4.2333-1.8955 4.2333-4.2333c0-0.17998-0.01482-0.35567-0.03669-0.52916-0.26106 2.0873-2.0384 3.7042-4.1966 3.7042" fill="#ff8031"/><g fill="#31353d"><path d="m81.73 187.07c0 0.19474-0.15769 0.35278-0.35278 0.35278s-0.35278-0.15804-0.35278-0.35278c0-0.19512 0.15769-0.35277 0.35278-0.35277s0.35278 0.15765 0.35278 0.35277"/><path d="m76.086 187.07c0 0.19474-0.15769 0.35278-0.35278 0.35278-0.19509 0-0.35278-0.15804-0.35278-0.35278 0-0.19512 0.15769-0.35277 0.35278-0.35277 0.19509 0 0.35278 0.15765 0.35278 0.35277"/><path d="m75.38 198.35c0 0.19474-0.15769 0.35278-0.35278 0.35278s-0.35278-0.15804-0.35278-0.35278c0-0.19512 0.15769-0.35277 0.35278-0.35277s0.35278 0.15765 0.35278 0.35277"/><path d="m69.736 198.35c0 0.19474-0.15769 0.35278-0.35278 0.35278s-0.35278-0.15804-0.35278-0.35278c0-0.19512 0.15769-0.35277 0.35278-0.35277s0.35278 0.15765 0.35278 0.35277"/><path d="m88.08 198.35c0 0.19474-0.15769 0.35278-0.35278 0.35278-0.19509 0-0.35278-0.15804-0.35278-0.35278 0-0.19512 0.15769-0.35277 0.35278-0.35277 0.19509 0 0.35278 0.15765 0.35278 0.35277"/><path d="m82.436 198.35c0 0.19474-0.15769 0.35278-0.35278 0.35278s-0.35278-0.15804-0.35278-0.35278c0-0.19512 0.15769-0.35277 0.35278-0.35277s0.35278 0.15765 0.35278 0.35277"/><path d="m78.555 186.71c-0.38911 0-0.70556-0.3168-0.70556-0.70556 0-0.38943 0.31644-0.70556 0.70556-0.70556s0.70556 0.31613 0.70556 0.70556c0 0.19512 0.15769 0.35278 0.35278 0.35278s0.35278-0.15766 0.35278-0.35278c0-0.65581-0.4512-1.2033-1.0583-1.3611v-0.4028c0-0.19508-0.15769-0.35278-0.35278-0.35278s-0.35278 0.1577-0.35278 0.35278v0.4028c-0.60713 0.1578-1.0583 0.70528-1.0583 1.3611 0 0.77791 0.63288 1.4111 1.4111 1.4111 0.38911 0 0.70556 0.31613 0.70556 0.70556 0 0.38876-0.31644 0.70555-0.70556 0.70555s-0.70556-0.31679-0.70556-0.70555c0-0.19512-0.15769-0.35278-0.35278-0.35278-0.19509 0-0.35278 0.15766-0.35278 0.35278 0 0.65539 0.4512 1.2029 1.0583 1.3607v0.40323c0 0.19512 0.15769 0.35277 0.35278 0.35277s0.35278-0.15765 0.35278-0.35277v-0.40323c0.60713-0.15776 1.0583-0.70527 1.0583-1.3607 0-0.77858-0.63288-1.4111-1.4111-1.4111"/></g><path d="m85.752 193.06c-0.15875 0-0.30304-0.10831-0.3422-0.26956-0.20638-0.84378-0.56409-1.6354-1.0636-2.3509-0.11112-0.15974-0.07232-0.37952 0.08749-0.491 0.15946-0.11123 0.37994-0.0724 0.49142 0.0875 0.54928 0.78729 0.94298 1.6577 1.1702 2.5873 0.04621 0.18934-0.06985 0.38019-0.25894 0.42651-0.02822 7e-3 -0.05644 0.0102-0.08431 0.0102" fill="#ffeaa7"/><g fill="#fd79a8"><path d="m78.555 195.53c-0.58349 0-1.0583-0.47487-1.0583-1.0583s0.47484-1.0583 1.0583-1.0583 1.0583 0.47488 1.0583 1.0583-0.47484 1.0583-1.0583 1.0583"/><path d="m84.2 190.59c-0.58349 0-1.0583-0.47487-1.0583-1.0583s0.47484-1.0583 1.0583-1.0583c0.5835 0 1.0583 0.47488 1.0583 1.0583s-0.47484 1.0583-1.0583 1.0583"/><path d="m71.5 193.42c-0.58349 0-1.0583-0.47487-1.0583-1.0583s0.47484-1.0583 1.0583-1.0583 1.0583 0.47487 1.0583 1.0583-0.47484 1.0583-1.0583 1.0583"/></g><path d="m78.555 202.23c-0.62512 0-1.2467-0.0744-1.8475-0.22119-0.18909-0.047-0.30551-0.23785-0.25929-0.42648 0.04657-0.19018 0.23742-0.30525 0.42651-0.25894 0.75988 0.18588 1.5568 0.24377 2.353 0.16923 0.19191-0.0179 0.36583 0.12429 0.38418 0.3186 0.01799 0.19402-0.12453 0.36586-0.31856 0.38421-0.24589 0.0229-0.49424 0.0346-0.73836 0.0346" fill="#ffeaa7"/><path d="m79.967 202.94c-0.58349 0-1.0583-0.47487-1.0583-1.0583s0.47484-1.0583 1.0583-1.0583c0.5835 0 1.0583 0.47487 1.0583 1.0583s-0.47484 1.0583-1.0583 1.0583" fill="#fd79a8"/><path d="m85.964 199.06c-0.19509 0-0.35278 0.15765-0.35278 0.35278 0 0.38876-0.31644 0.70555-0.70556 0.70555s-0.70556-0.31679-0.70556-0.70555h0.35278c0.19509 0 0.35278-0.15766 0.35278-0.35278s-0.15769-0.35278-0.35278-0.35278h-0.35278v-0.70555h0.35278c0.19509 0 0.35278-0.15766 0.35278-0.35278s-0.15769-0.35278-0.35278-0.35278h-0.35278c0-0.38943 0.31644-0.70556 0.70556-0.70556s0.70556 0.31613 0.70556 0.70556c0 0.19512 0.15769 0.35278 0.35278 0.35278 0.19509 0 0.35278-0.15766 0.35278-0.35278 0-0.77858-0.63288-1.4111-1.4111-1.4111s-1.4111 0.63253-1.4111 1.4111h-0.35278c-0.19509 0-0.35278 0.15766-0.35278 0.35278s0.15769 0.35278 0.35278 0.35278h0.35278v0.70555h-0.35278c-0.19509 0-0.35278 0.15766-0.35278 0.35278s0.15769 0.35278 0.35278 0.35278h0.35278c0 0.77791 0.63288 1.4111 1.4111 1.4111s1.4111-0.6332 1.4111-1.4111c0-0.19513-0.15769-0.35278-0.35278-0.35278" fill="#31353d"/><path d="m73.264 200.12h-1.1187c0.03881-0.1101 0.06032-0.2293 0.06032-0.35278v-1.0583h0.35278c0.19509 0 0.35278-0.15766 0.35278-0.35278s-0.15769-0.35277-0.35278-0.35277h-0.35278v-0.35278c0-0.58346 0.47484-1.0583 1.0583-1.0583 0.19509 0 0.35278-0.15765 0.35278-0.35277 0-0.19513-0.15769-0.35278-0.35278-0.35278-0.97261 0-1.7639 0.79086-1.7639 1.7639v0.35278h-0.35278c-0.19509 0-0.35278 0.15765-0.35278 0.35277s0.15769 0.35278 0.35278 0.35278h0.35278v1.0583c0 0.19446-0.15804 0.35278-0.35278 0.35278-0.19509 0-0.35278 0.15766-0.35278 0.35278s0.15769 0.35278 0.35278 0.35278h2.1167c0.19509 0 0.35278-0.15766 0.35278-0.35278s-0.15769-0.35278-0.35278-0.35278" fill="#31353d"/><g fill="#fff"><path d="m81.025 184.9c-0.08925 0-0.1785-0.0339-0.2473-0.10128-0.59831-0.58773-1.3878-0.91158-2.2221-0.91158s-1.6238 0.32385-2.2221 0.91158c-0.13935 0.13586-0.3623 0.13434-0.49918-4e-3 -0.13652-0.13892-0.13441-0.3623 0.0046-0.49953 0.73131-0.71787 1.6962-1.1133 2.7167-1.1133s1.9854 0.39546 2.7167 1.1133c0.13899 0.13723 0.14111 0.36061 0.0046 0.49953-0.06914 0.0703-0.16051 0.10555-0.25188 0.10555"/><path d="m82.083 185.65c0 0.19474-0.15769 0.35278-0.35278 0.35278s-0.35278-0.15804-0.35278-0.35278c0-0.19512 0.15769-0.35278 0.35278-0.35278s0.35278 0.15766 0.35278 0.35278"/><path d="m87.375 196.19c-0.08925 0-0.17851-0.0339-0.2473-0.10128-0.59831-0.58773-1.3878-0.91158-2.2221-0.91158-0.83432 0-1.6238 0.32385-2.2221 0.91158-0.13935 0.13586-0.3623 0.13434-0.49918-4e-3 -0.13652-0.13892-0.13441-0.3623 0.0046-0.49953 0.73131-0.71783 1.6962-1.1133 2.7167-1.1133s1.9854 0.3955 2.7167 1.1133c0.13899 0.13723 0.14111 0.36061 0.0046 0.49953-0.06914 0.0703-0.16051 0.10555-0.25188 0.10555"/><path d="m88.433 196.94c0 0.19474-0.15769 0.35278-0.35278 0.35278s-0.35278-0.15804-0.35278-0.35278c0-0.19512 0.15769-0.35278 0.35278-0.35278s0.35278 0.15766 0.35278 0.35278"/><path d="m74.675 196.19c-0.08925 0-0.1785-0.0339-0.2473-0.10128-0.59831-0.58773-1.3878-0.91158-2.2221-0.91158-0.83432 0-1.6238 0.32385-2.2221 0.91158-0.13935 0.13586-0.3623 0.13434-0.49918-4e-3 -0.13652-0.13892-0.13441-0.3623 0.0046-0.49953 0.73131-0.71783 1.6962-1.1133 2.7167-1.1133 1.0206 0 1.9854 0.3955 2.7167 1.1133 0.139 0.13723 0.14111 0.36061 0.0046 0.49953-0.06914 0.0703-0.16051 0.10555-0.25188 0.10555"/><path d="m75.733 196.94c0 0.19474-0.15769 0.35278-0.35278 0.35278s-0.35278-0.15804-0.35278-0.35278c0-0.19512 0.15769-0.35278 0.35278-0.35278s0.35278 0.15766 0.35278 0.35278"/></g></g></svg>
