<svg width="21.167mm" height="21.167mm" version="1.1" viewBox="0 0 21.167 21.167" xmlns="http://www.w3.org/2000/svg"><g transform="translate(-94.783 -145.58)"><path d="m115.24 150.52v-4.9389h-5.2917v4.9389l-2.1167 3.175 1.7639 2.8222h0.70555v5.2917c0 0.38947 0.31609 0.70555 0.70556 0.70555s0.70555-0.31608 0.70555-0.70555v-3.8806c0 0.38947 0.31609 0.70556 0.70556 0.70556s0.70556-0.31609 0.70556-0.70556c0 0.38947 0.31608 0.70556 0.70555 0.70556s0.70556-0.31609 0.70556-0.70556c0 0.38947 0.31609 0.70556 0.70555 0.70556 0.38947 0 0.70556-0.31609 0.70556-0.70556v-6.35l-0.70556-1.0583" fill="#fcd770"/><path d="m113.13 157.58h-2.8222v-2.1167h2.8222v2.1167" fill="#fea82f"/><path d="m110.66 154.05s3.5278 0 5.2917-2.4694v4.2333h-5.2917v-1.7639" fill="#fea82f"/><path d="m112.4 154.55-1.7402-0.49706-1.0583 2.4694h2.522c0.55562 0 1.0058-0.45014 1.0058-1.0058 0-0.44873-0.29775-0.84314-0.7292-0.96661" fill="#fcd770"/><path d="m101.84 149.82c0 1.948-1.5797 3.5278-3.5278 3.5278-1.948 0-3.5278-1.5797-3.5278-3.5278 0-1.9484 1.5797-3.5278 3.5278-3.5278 1.948 0 3.5278 1.5794 3.5278 3.5278" fill="#fea82f"/><path d="m98.311 152.29c-1.7681 0-3.2279-1.3018-3.4837-2.9986-0.02611 0.17286-0.0441 0.34889-0.0441 0.52916 0 1.948 1.5797 3.5278 3.5278 3.5278 1.948 0 3.5278-1.5797 3.5278-3.5278 0-0.18027-0.018-0.3563-0.0441-0.52916-0.25576 1.6969-1.7156 2.9986-3.4837 2.9986" fill="#ff8031"/><path d="m115.24 155.11c-0.38946 0-0.70555 0.31574-0.70555 0.70556v2.1167c0 0.38947 0.31609 0.70556 0.70555 0.70556 0.38947 0 0.70556-0.31609 0.70556-0.70556v-2.1167c0-0.38982-0.31609-0.70556-0.70556-0.70556" fill="#fcd770"/><path d="m113.83 155.11c-0.38947 0-0.70555 0.31574-0.70555 0.70556v2.1167c0 0.38947 0.31608 0.70556 0.70555 0.70556s0.70556-0.31609 0.70556-0.70556v-2.1167c0-0.38982-0.31609-0.70556-0.70556-0.70556" fill="#fcd770"/><g fill="#31353d"><path d="m101.13 149.82c0 0.19509-0.15769 0.35278-0.35278 0.35278-0.19508 0-0.35277-0.15769-0.35277-0.35278 0-0.19508 0.15769-0.35277 0.35277-0.35277 0.19509 0 0.35278 0.15769 0.35278 0.35277"/><path d="m96.194 149.82c0 0.19509-0.15769 0.35278-0.35278 0.35278-0.19509 0-0.35278-0.15769-0.35278-0.35278 0-0.19508 0.15769-0.35277 0.35278-0.35277 0.19509 0 0.35278 0.15769 0.35278 0.35277"/><path d="m98.664 149.46h-0.70556c-0.19473 0-0.35278-0.15805-0.35278-0.35278 0-0.19474 0.15804-0.35278 0.35278-0.35278h0.70556c0.19473 0 0.35278 0.15804 0.35278 0.35278 0 0.19508 0.15769 0.35278 0.35278 0.35278 0.19509 0 0.35278-0.1577 0.35278-0.35278 0-0.5835-0.47484-1.0583-1.0583-1.0583v-0.35277c0-0.19509-0.15769-0.35278-0.35278-0.35278s-0.35278 0.15769-0.35278 0.35278v0.35277c-0.58349 0-1.0583 0.47484-1.0583 1.0583 0 0.58349 0.47484 1.0583 1.0583 1.0583h0.70556c0.19473 0 0.35278 0.15805 0.35278 0.35278s-0.15804 0.35278-0.35278 0.35278h-0.70556c-0.19473 0-0.35278-0.15805-0.35278-0.35278 0-0.19509-0.15769-0.35278-0.35278-0.35278-0.19509 0-0.35278 0.15769-0.35278 0.35278 0 0.58349 0.47484 1.0583 1.0583 1.0583v0.35278c0 0.19509 0.15769 0.35278 0.35278 0.35278s0.35278-0.15769 0.35278-0.35278v-0.35278c0.58349 0 1.0583-0.47484 1.0583-1.0583 0-0.5835-0.47484-1.0583-1.0583-1.0583"/></g><path d="m105.37 161.81c-0.4325 0-0.82796 0.24412-1.0213 0.63112l-1.4482 2.8967v1.4111h4.9389v-1.4111l-1.4482-2.8967c-0.19333-0.387-0.58879-0.63112-1.0213-0.63112" fill="#ececec"/><path d="m106.39 162.44c-0.19333-0.387-0.58879-0.63112-1.0213-0.63112-0.18838 0-0.36865 0.0487-0.52916 0.133 0.20814 0.109 0.38276 0.27975 0.49212 0.49812l1.4482 2.8967v1.4111h1.0583v-1.4111l-1.4482-2.8967" fill="#b6c1ce"/><path d="m102.9 166.75h4.9389v-1.4111h-4.9389v1.4111" fill="#fb5968"/><path d="m106.78 166.75h1.0583v-1.4111h-1.0583v1.4111" fill="#cd2c5a"/><path d="m115.24 163.93c-0.0222 0-0.0455-2e-3 -0.0681-7e-3l-19.756-3.8806c-0.1912-0.0374-0.31609-0.22261-0.27834-0.41381 0.03739-0.19156 0.22296-0.31609 0.41381-0.27834l19.756 3.8806c0.19121 0.0374 0.31609 0.22261 0.27834 0.41381-0.0328 0.16863-0.18027 0.28505-0.34572 0.28505" fill="#d3a06c"/><g fill="#ffc729"><path d="m98.311 157.22c-0.19509 0-0.35278-0.15769-0.35278-0.35278v-2.1167c0-0.19508 0.15769-0.35278 0.35278-0.35278s0.35278 0.1577 0.35278 0.35278v2.1167c0 0.19509-0.15769 0.35278-0.35278 0.35278"/><path d="m98.664 158.28c0 0.19509-0.15769 0.35278-0.35278 0.35278s-0.35278-0.15769-0.35278-0.35278 0.15769-0.35278 0.35278-0.35278 0.35278 0.15769 0.35278 0.35278"/><path d="m100.43 156.52c-0.19509 0-0.35278-0.15769-0.35278-0.35278v-1.4111c0-0.19508 0.15769-0.35278 0.35278-0.35278 0.19508 0 0.35277 0.1577 0.35277 0.35278v1.4111c0 0.19509-0.15769 0.35278-0.35277 0.35278"/><path d="m100.78 157.58c0 0.19508-0.15769 0.35277-0.35277 0.35277-0.19509 0-0.35278-0.15769-0.35278-0.35277 0-0.19509 0.15769-0.35278 0.35278-0.35278 0.19508 0 0.35277 0.15769 0.35277 0.35278"/><path d="m96.194 156.52c-0.19509 0-0.35278-0.15769-0.35278-0.35278v-1.4111c0-0.19508 0.15769-0.35278 0.35278-0.35278s0.35278 0.1577 0.35278 0.35278v1.4111c0 0.19509-0.15769 0.35278-0.35278 0.35278"/><path d="m96.547 157.58c0 0.19508-0.15769 0.35277-0.35278 0.35277s-0.35278-0.15769-0.35278-0.35277c0-0.19509 0.15769-0.35278 0.35278-0.35278s0.35278 0.15769 0.35278 0.35278"/></g><path d="m100.43 148.31c-0.0977 0-0.19509-0.0406-0.26494-0.11959-0.4699-0.53411-1.1448-0.84032-1.8517-0.84032s-1.3818 0.30621-1.8517 0.84032c-0.12912 0.14675-0.35172 0.1598-0.49812 0.0318-0.14605-0.12912-0.16016-0.35172-0.03175-0.49813 0.60396-0.68615 1.4721-1.0795 2.3816-1.0795s1.7777 0.39335 2.3816 1.0795c0.12841 0.14641 0.1143 0.36901-0.0318 0.49813-0.067 0.0589-0.15028 0.0878-0.23318 0.0878" fill="#fff"/><path d="m101.41 148.99c0 0.19473-0.15769 0.35277-0.35277 0.35277-0.19474 0-0.35278-0.15804-0.35278-0.35277 0-0.19509 0.15804-0.35278 0.35278-0.35278 0.19508 0 0.35277 0.15769 0.35277 0.35278" fill="#fff"/></g></svg>
