<svg width="21.167mm" height="21.519mm" version="1.1" viewBox="0 0 21.167 21.519" xmlns="http://www.w3.org/2000/svg"><g transform="translate(-77.321 -122.21)"><path d="m94.254 133.5h-5.9972v-2.4694c0-0.19508-0.1578-0.35277-0.35278-0.35277s-0.35277 0.15769-0.35277 0.35277v2.4694h-5.9972c-0.97246 0-1.7639 0.79128-1.7639 1.7639v1.0583c0 0.19509 0.1578 0.35278 0.35278 0.35278s0.35278-0.15769 0.35278-0.35278v-1.0583c0-0.5835 0.47473-1.0583 1.0583-1.0583h5.9972v2.1167c0 0.19509 0.15779 0.35278 0.35277 0.35278s0.35278-0.15769 0.35278-0.35278v-2.1167h5.9972c0.5836 0 1.0583 0.47483 1.0583 1.0583v1.0583c0 0.19509 0.15779 0.35278 0.35278 0.35278 0.19498 0 0.35277-0.15769 0.35277-0.35278v-1.0583c0-0.97261-0.79142-1.7639-1.7639-1.7639" fill="#31353d"/><path d="m92.137 126.8c0 2.3379-1.8955 4.2333-4.2333 4.2333-2.3378 0-4.2333-1.8955-4.2333-4.2333s1.8955-4.2333 4.2333-4.2333c2.3379 0 4.2333 1.8955 4.2333 4.2333" fill="#fea82f"/><path d="m87.904 129.97c-2.1584 0-3.9357-1.6164-4.1968-3.7042-0.0216 0.17357-0.0365 0.34961-0.0365 0.52917 0 2.3379 1.8955 4.2333 4.2333 4.2333 2.3379 0 4.2333-1.8955 4.2333-4.2333 0-0.17956-0.0149-0.3556-0.0365-0.52917-0.26112 2.0877-2.0384 3.7042-4.1968 3.7042" fill="#ff8031"/><path d="m78.379 143.73h3.5278v-1.4111h-3.5278v1.4111" fill="#48c397"/><path d="m81.201 143.73h0.70555v-1.4111h-0.70555v1.4111" fill="#0fa196"/><path d="m82.965 139.14c0-1.5586-1.2636-2.8222-2.8222-2.8222s-2.8222 1.2636-2.8222 2.8222c0 0.89077 0.41381 1.6838 1.0583 2.201v0.97402h3.5278v-0.97402c0.64453-0.51717 1.0583-1.3102 1.0583-2.201" fill="#fcd770"/><path d="m81.041 136.47c0.73572 0.50906 1.2185 1.3582 1.2185 2.3209 0 0.89076-0.41381 1.6838-1.0583 2.201v1.3268h0.70555v-0.97402c0.64453-0.51717 1.0583-1.3102 1.0583-2.201 0-1.2442-0.80616-2.2983-1.924-2.6737" fill="#ffc729"/><path d="m86.14 143.73h3.5278v-1.4111h-3.5278v1.4111" fill="#48c397"/><path d="m88.962 143.73h0.70555v-1.4111h-0.70555v1.4111" fill="#0fa196"/><path d="m90.726 139.14c0-1.5586-1.2636-2.8222-2.8222-2.8222-1.5586 0-2.8222 1.2636-2.8222 2.8222 0 0.89077 0.41381 1.6838 1.0583 2.201v0.97402h3.5278v-0.97402c0.64453-0.51717 1.0583-1.3102 1.0583-2.201" fill="#fcd770"/><path d="m88.802 136.47c0.73572 0.50906 1.2185 1.3582 1.2185 2.3209 0 0.89076-0.41381 1.6838-1.0583 2.201v1.3268h0.70555v-0.97402c0.64453-0.51717 1.0583-1.3102 1.0583-2.201 0-1.2442-0.80617-2.2983-1.924-2.6737" fill="#ffc729"/><path d="m93.901 143.73h3.5278v-1.4111h-3.5278v1.4111" fill="#48c397"/><path d="m96.724 143.73h0.70555v-1.4111h-0.70555v1.4111" fill="#0fa196"/><g fill="#31353d"><path d="m87.904 126.44c-0.38886 0-0.70555-0.31679-0.70555-0.70555 0-0.38912 0.31669-0.70556 0.70555-0.70556 0.38887 0 0.70556 0.31644 0.70556 0.70556 0 0.19508 0.1578 0.35278 0.35278 0.35278s0.35278-0.1577 0.35278-0.35278c0-0.65546-0.45131-1.2033-1.0583-1.361v-0.40287c0-0.19509-0.1578-0.35278-0.35278-0.35278s-0.35277 0.15769-0.35277 0.35278v0.40287c-0.60703 0.15769-1.0583 0.70556-1.0583 1.361 0 0.77823 0.63282 1.4111 1.4111 1.4111 0.38887 0 0.70556 0.31644 0.70556 0.70555 0 0.38877-0.31669 0.70556-0.70556 0.70556-0.38886 0-0.70555-0.31679-0.70555-0.70556 0-0.19508-0.1578-0.35277-0.35278-0.35277s-0.35278 0.15769-0.35278 0.35277c0 0.65547 0.45131 1.2033 1.0583 1.361v0.40287c0 0.19509 0.15779 0.35278 0.35277 0.35278s0.35278-0.15769 0.35278-0.35278v-0.40287c0.60703-0.15769 1.0583-0.70555 1.0583-1.361 0-0.77822-0.63278-1.4111-1.4111-1.4111"/><path d="m91.079 126.8c0 0.19509-0.15779 0.35278-0.35277 0.35278s-0.35278-0.15769-0.35278-0.35278c0-0.19508 0.1578-0.35278 0.35278-0.35278s0.35277 0.1577 0.35277 0.35278"/><path d="m85.435 126.8c0 0.19509-0.1578 0.35278-0.35278 0.35278s-0.35278-0.15769-0.35278-0.35278c0-0.19508 0.1578-0.35278 0.35278-0.35278s0.35278 0.1577 0.35278 0.35278"/></g><path d="m80.143 139.5c-0.19473 0-0.35278-0.15804-0.35278-0.35278 0-0.19473 0.15805-0.35277 0.35278-0.35277 0.19474 0 0.35278 0.15804 0.35278 0.35277 0 0.19474-0.15804 0.35278-0.35278 0.35278zm1.0583-0.35278c0-0.58349-0.47474-1.0583-1.0583-1.0583s-1.0583 0.47484-1.0583 1.0583c0 0.45932 0.29601 0.84702 0.70555 0.99307v2.1819c0 0.19509 0.1578 0.35278 0.35278 0.35278s0.35278-0.15769 0.35278-0.35278v-2.1819c0.40954-0.14605 0.70556-0.53375 0.70556-0.99307" fill="#fea82f"/><path d="m82.26 142.67h-4.2333c-0.19498 0-0.35278-0.15769-0.35278-0.35278 0-0.19508 0.1578-0.35277 0.35278-0.35277h4.2333c0.19498 0 0.35278 0.15769 0.35278 0.35277 0 0.19509-0.1578 0.35278-0.35278 0.35278" fill="#31353d"/><path d="m98.487 139.14c0-1.5586-1.2636-2.8222-2.8222-2.8222-1.5586 0-2.8222 1.2636-2.8222 2.8222 0 0.89077 0.41381 1.6838 1.0583 2.201v0.97402h3.5278v-0.97402c0.64453-0.51717 1.0583-1.3102 1.0583-2.201" fill="#fcd770"/><path d="m96.563 136.47c0.73572 0.50906 1.2185 1.3582 1.2185 2.3209 0 0.89076-0.41381 1.6838-1.0583 2.201v1.3268h0.70555v-0.97402c0.64453-0.51717 1.0583-1.3102 1.0583-2.201 0-1.2442-0.80617-2.2983-1.924-2.6737" fill="#ffc729"/><path d="m87.904 139.5c-0.19473 0-0.35277-0.15804-0.35277-0.35278 0-0.19473 0.15804-0.35277 0.35277-0.35277 0.19474 0 0.35278 0.15804 0.35278 0.35277 0 0.19474-0.15804 0.35278-0.35278 0.35278zm1.0583-0.35278c0-0.58349-0.47474-1.0583-1.0583-1.0583s-1.0583 0.47484-1.0583 1.0583c0 0.45932 0.29602 0.84702 0.70556 0.99307v2.1819c0 0.19509 0.15779 0.35278 0.35277 0.35278s0.35278-0.15769 0.35278-0.35278v-2.1819c0.40954-0.14605 0.70556-0.53375 0.70556-0.99307" fill="#fea82f"/><path d="m90.021 142.67h-4.2333c-0.19498 0-0.35278-0.15769-0.35278-0.35278 0-0.19508 0.1578-0.35277 0.35278-0.35277h4.2333c0.19498 0 0.35278 0.15769 0.35278 0.35277 0 0.19509-0.1578 0.35278-0.35278 0.35278" fill="#31353d"/><path d="m95.665 139.5c-0.19474 0-0.35278-0.15804-0.35278-0.35278 0-0.19473 0.15804-0.35277 0.35278-0.35277 0.19473 0 0.35277 0.15804 0.35277 0.35277 0 0.19474-0.15804 0.35278-0.35277 0.35278zm1.0583-0.35278c0-0.58349-0.47473-1.0583-1.0583-1.0583-0.58361 0-1.0583 0.47484-1.0583 1.0583 0 0.45932 0.29602 0.84702 0.70556 0.99307v2.1819c0 0.19509 0.15779 0.35278 0.35278 0.35278 0.19498 0 0.35277-0.15769 0.35277-0.35278v-2.1819c0.40954-0.14605 0.70556-0.53375 0.70556-0.99307" fill="#fea82f"/><path d="m97.782 142.67h-4.2333c-0.19498 0-0.35278-0.15769-0.35278-0.35278 0-0.19508 0.1578-0.35277 0.35278-0.35277h4.2333c0.19498 0 0.35278 0.15769 0.35278 0.35277 0 0.19509-0.1578 0.35278-0.35278 0.35278" fill="#31353d"/><g fill="#ffc729"><path d="m94.254 123.62c-0.19498 0-0.35277-0.15769-0.35277-0.35278v-0.70555c0-0.19509 0.15779-0.35278 0.35277-0.35278s0.35278 0.15769 0.35278 0.35278v0.70555c0 0.19509-0.1578 0.35278-0.35278 0.35278"/><path d="m94.254 125.74c-0.19498 0-0.35277-0.15769-0.35277-0.35278v-0.70556c0-0.19508 0.15779-0.35277 0.35277-0.35277s0.35278 0.15769 0.35278 0.35277v0.70556c0 0.19509-0.1578 0.35278-0.35278 0.35278"/><path d="m95.665 124.33h-0.70556c-0.19498 0-0.35278-0.15769-0.35278-0.35278s0.1578-0.35278 0.35278-0.35278h0.70556c0.19498 0 0.35277 0.15769 0.35277 0.35278s-0.15779 0.35278-0.35277 0.35278"/><path d="m93.548 124.33h-0.70556c-0.19498 0-0.35277-0.15769-0.35277-0.35278s0.15779-0.35278 0.35277-0.35278h0.70556c0.19498 0 0.35278 0.15769 0.35278 0.35278s-0.1578 0.35278-0.35278 0.35278"/><path d="m80.848 129.97c-0.19498 0-0.35278-0.15769-0.35278-0.35278v-0.70555c0-0.19509 0.1578-0.35278 0.35278-0.35278s0.35278 0.15769 0.35278 0.35278v0.70555c0 0.19509-0.1578 0.35278-0.35278 0.35278"/><path d="m80.848 132.09c-0.19498 0-0.35278-0.15769-0.35278-0.35278v-0.70556c0-0.19508 0.1578-0.35277 0.35278-0.35277s0.35278 0.15769 0.35278 0.35277v0.70556c0 0.19509-0.1578 0.35278-0.35278 0.35278"/><path d="m82.26 130.68h-0.70556c-0.19498 0-0.35277-0.15769-0.35277-0.35278s0.15779-0.35278 0.35277-0.35278h0.70556c0.19498 0 0.35278 0.15769 0.35278 0.35278s-0.1578 0.35278-0.35278 0.35278"/><path d="m80.143 130.68h-0.70555c-0.19498 0-0.35278-0.15769-0.35278-0.35278s0.1578-0.35278 0.35278-0.35278h0.70555c0.19498 0 0.35278 0.15769 0.35278 0.35278s-0.1578 0.35278-0.35278 0.35278"/><path d="m96.018 130.68c-0.19498 0-0.35277-0.15769-0.35277-0.35278v-0.70556c0-0.19508 0.15779-0.35277 0.35277-0.35277s0.35278 0.15769 0.35278 0.35277v0.70556c0 0.19509-0.1578 0.35278-0.35278 0.35278"/><path d="m96.018 132.79c-0.19498 0-0.35277-0.15769-0.35277-0.35277v-0.70556c0-0.19509 0.15779-0.35278 0.35277-0.35278s0.35278 0.15769 0.35278 0.35278v0.70556c0 0.19508-0.1578 0.35277-0.35278 0.35277"/><path d="m97.429 131.38h-0.70555c-0.19498 0-0.35278-0.15769-0.35278-0.35278 0-0.19508 0.1578-0.35277 0.35278-0.35277h0.70555c0.19498 0 0.35278 0.15769 0.35278 0.35277 0 0.19509-0.1578 0.35278-0.35278 0.35278"/><path d="m95.312 131.38h-0.70556c-0.19498 0-0.35278-0.15769-0.35278-0.35278 0-0.19508 0.1578-0.35277 0.35278-0.35277h0.70556c0.19498 0 0.35278 0.15769 0.35278 0.35277 0 0.19509-0.1578 0.35278-0.35278 0.35278"/></g><g fill="#fff"><path d="m90.374 124.64c-0.0892 0-0.17847-0.0339-0.24737-0.1009-0.59849-0.58808-1.3877-0.91193-2.2221-0.91193s-1.6236 0.32385-2.2221 0.91193c-0.13946 0.13582-0.36245 0.13441-0.49929-5e-3 -0.13642-0.139-0.1342-0.36231 5e-3 -0.49918 0.73149-0.71826 1.6964-1.1137 2.7168-1.1137 1.0204 0 1.9853 0.39546 2.7168 1.1137 0.13874 0.13687 0.14097 0.36018 5e-3 0.49918-0.0693 0.0702-0.16055 0.10548-0.25192 0.10548"/><path d="m91.432 125.39c0 0.19509-0.1578 0.35278-0.35278 0.35278s-0.35277-0.15769-0.35277-0.35278 0.15779-0.35278 0.35277-0.35278 0.35278 0.15769 0.35278 0.35278"/><path d="m97.162 138c-0.0903 0-0.18052-0.0346-0.24941-0.10337-0.33324-0.33337-0.77612-0.51681-1.2471-0.51681-0.47103 0-0.91391 0.18344-1.2471 0.51681-0.1378 0.13759-0.36104 0.13759-0.49883 0-0.1378-0.13793-0.1378-0.36124 0-0.49882 0.46619-0.46673 1.0863-0.72355 1.746-0.72355 0.65965 0 1.2798 0.25682 1.746 0.72355 0.1378 0.13758 0.1378 0.36089 0 0.49882-0.0689 0.0688-0.15917 0.10337-0.24941 0.10337"/><path d="m98.135 138.79c0 0.19508-0.1578 0.35277-0.35278 0.35277s-0.35278-0.15769-0.35278-0.35277c0-0.19509 0.1578-0.35278 0.35278-0.35278s0.35278 0.15769 0.35278 0.35278"/><path d="m89.401 138c-0.0903 0-0.18052-0.0346-0.24942-0.10337-0.33323-0.33337-0.77611-0.51681-1.2471-0.51681s-0.9139 0.18344-1.2471 0.51681c-0.13779 0.13759-0.36103 0.13759-0.49882 0-0.1378-0.13793-0.1378-0.36124 0-0.49882 0.46619-0.46673 1.0863-0.72355 1.746-0.72355s1.2798 0.25682 1.746 0.72355c0.1378 0.13758 0.1378 0.36089 0 0.49882-0.0689 0.0688-0.15917 0.10337-0.24941 0.10337"/><path d="m90.374 138.79c0 0.19508-0.1578 0.35277-0.35278 0.35277s-0.35278-0.15769-0.35278-0.35277c0-0.19509 0.1578-0.35278 0.35278-0.35278s0.35278 0.15769 0.35278 0.35278"/><path d="m81.64 138c-0.0903 0-0.18052-0.0346-0.24942-0.10337-0.33323-0.33337-0.77611-0.51681-1.2471-0.51681s-0.9139 0.18344-1.2471 0.51681c-0.13779 0.13759-0.36103 0.13759-0.49883 0-0.13779-0.13793-0.13779-0.36124 0-0.49882 0.4662-0.46673 1.0863-0.72355 1.746-0.72355s1.2798 0.25682 1.746 0.72355c0.1378 0.13758 0.1378 0.36089 0 0.49882-0.0689 0.0688-0.15917 0.10337-0.24941 0.10337"/><path d="m82.612 138.79c0 0.19508-0.1578 0.35277-0.35278 0.35277s-0.35278-0.15769-0.35278-0.35277c0-0.19509 0.1578-0.35278 0.35278-0.35278s0.35278 0.15769 0.35278 0.35278"/></g></g></svg>
