<svg width="21.874mm" height="21.872mm" version="1.1" viewBox="0 0 21.874 21.872" xmlns="http://www.w3.org/2000/svg"><g transform="translate(-97.164 -107.66)"><path d="m97.518 118.6c0 5.8448 4.7385 10.583 10.583 10.583s10.583-4.7385 10.583-10.583c0-5.8448-4.7385-10.583-10.583-10.583s-10.583 4.7385-10.583 10.583" fill="#39c3fc"/><path d="m108.1 126.71c-5.4271 0-9.8975-4.0859-10.509-9.3486-0.04727 0.40534-0.07408 0.81668-0.07408 1.2347 0 5.8448 4.7385 10.583 10.583 10.583s10.583-4.7385 10.583-10.583c0-0.41804-0.0268-0.82938-0.0741-1.2347-0.61172 5.2627-5.0821 9.3486-10.509 9.3486" fill="#148ce0"/><path d="m108.45 118.24v-4.2379c1.5124-0.0247 2.7541-0.20461 3.7634-0.46073 0.64311 1.3391 1.1106 2.9139 1.1663 4.6986zm3.761 5.4038c-1.0086-0.25612-2.2497-0.43568-3.761-0.46038v-4.2379h4.9297c-0.0557 1.7836-0.52423 3.3581-1.1688 4.6983zm-3.761 4.807v-4.5618c1.3702 0.0233 2.5019 0.18097 3.4276 0.40499-1.1384 2.0652-2.6328 3.4886-3.4276 4.1568zm0-19.717c0.79587 0.66746 2.2938 2.0916 3.4325 4.1617-0.92533 0.2219-2.0581 0.37818-3.4325 0.40111zm-0.70556 4.5628c-1.3702-0.0233-2.5019-0.18097-3.4276-0.40499 1.1384-2.0652 2.6328-3.4886 3.4276-4.1568zm0 4.9435h-4.9297c0.0557-1.7836 0.52422-3.3581 1.1688-4.6983 1.0086 0.25612 2.2497 0.43568 3.761 0.46038zm0 4.9435c-1.5124 0.0247-2.7541 0.20461-3.7634 0.46073-0.64311-1.3395-1.1106-2.914-1.1663-4.6986h4.9297zm0 5.2684c-0.79586-0.66745-2.2938-2.0916-3.4325-4.1617 0.92533-0.22225 2.0581-0.37817 3.4325-0.4011zm5.1717-15.112c1.8538-0.59514 2.763-1.4249 3.0868-1.7801-0.15699-0.17639-0.31927-0.34713-0.48754-0.51258-0.20708 0.23777-1.0344 1.0686-2.9168 1.6528-1.2993-2.4444-3.09-4.0365-3.8908-4.6711-0.20215-0.012-0.40535-0.019-0.61066-0.019-0.20532 0-0.40852 7e-3 -0.61101 0.019-0.8001 0.63429-2.5883 2.2243-3.8876 4.6655-1.8687-0.58385-2.7065-1.4097-2.9185-1.6482-0.16862 0.1658-0.3316 0.33725-0.48859 0.51364 0.32385 0.35525 1.233 1.185 3.0868 1.7801-0.64982 1.3956-1.1162 3.035-1.1695 4.9004h-4.5861c-0.0035 0.11747-0.0088 0.23459-0.0088 0.35277s0.0053 0.23531 0.0088 0.35278h4.5861c0.0533 1.8655 0.51964 3.5048 1.1695 4.9004-1.8538 0.59513-2.763 1.4249-3.0868 1.7798 0.15699 0.17639 0.31927 0.34749 0.48754 0.51294 0.20708-0.23777 1.0343-1.0686 2.9168-1.6528 1.2993 2.4444 3.09 4.0361 3.8908 4.6711 0.20214 0.0116 0.40534 0.019 0.61066 0.019 0.20531 0 0.40851-7e-3 0.61101-0.019 0.8001-0.6343 2.5883-2.2243 3.8876-4.6655 1.8687 0.58385 2.7065 1.4097 2.9185 1.6482 0.16863-0.16581 0.33161-0.33726 0.4886-0.514-0.32385-0.35489-1.233-1.1846-3.0868-1.7798 0.64982-1.3956 1.1162-3.035 1.1695-4.9004h4.5861c3e-3 -0.11747 9e-3 -0.2346 9e-3 -0.35278s-5e-3 -0.2353-9e-3 -0.35277h-4.5861c-0.0533-1.8655-0.51964-3.5048-1.1695-4.9004" fill="#ececec"/><path d="m118.33 111.89c0 0.19508-0.15769 0.35277-0.35277 0.35277-0.19509 0-0.35278-0.15769-0.35278-0.35277 0-0.19509 0.15769-0.35278 0.35278-0.35278 0.19508 0 0.35277 0.15769 0.35277 0.35278" fill="#fb5968"/><g fill="#b6c1ce"><path d="m102.32 124.99c-0.22225-0.14535-0.4392-0.29881-0.64981-0.46038-0.80434 0.4378-1.2644 0.86924-1.4753 1.1 0.15699 0.17639 0.31927 0.34749 0.48754 0.51294 0.15205-0.17498 0.6417-0.67028 1.6376-1.1525"/><path d="m108.71 129.16c0.60572-0.48013 1.7776-1.5095 2.8755-3.0402-0.3817 0.13335-0.77364 0.24447-1.1737 0.33373-0.75318 0.9211-1.4827 1.5995-1.96 2.0002v-1.7522c-0.11748 4e-3 -0.2346 8e-3 -0.35278 8e-3s-0.2353-5e-3 -0.35278-8e-3v1.7533c-0.47766-0.40075-1.2097-1.0795-1.9639-2.0024-0.39864-0.0889-0.78952-0.20003-1.1698-0.33267 1.0978 1.5307 2.2698 2.5601 2.8758 3.0402 0.20214 0.0116 0.40534 0.019 0.61066 0.019 0.20531 0 0.40851-7e-3 0.61101-0.019"/><path d="m97.734 118.24h-0.20743c-0.0035 0.11747-0.0088 0.23459-0.0088 0.35277s0.0053 0.23531 0.0088 0.35278h0.37712c-0.06421-0.23213-0.12136-0.46708-0.16969-0.70555"/><path d="m118.68 118.6c0-0.11818-5e-3 -0.2353-9e-3 -0.35277h-0.20743c-0.0483 0.23847-0.10548 0.47342-0.16969 0.70555h0.37712c4e-3 -0.11747 9e-3 -0.2346 9e-3 -0.35278"/><path d="m114.53 124.53c-0.21308 0.16334-0.4325 0.31856-0.65793 0.46567 0.99307 0.48013 1.4891 0.97261 1.6446 1.1483 0.16863-0.16581 0.33161-0.33726 0.4886-0.514-0.21061-0.23072-0.67099-0.66216-1.4753-1.1"/></g><path d="m118.57 108.12c-1.0876-1.0876-3.4943-0.0596-5.321 0.99519-0.0109 6e-3 -0.0212 0.013-0.031 0.0201-0.0512 0.0374-0.10125 0.0755-0.15205 0.11289 0.23213 0.12347 0.45862 0.25647 0.68016 0.39688 2.1414-1.2122 3.7532-1.597 4.3247-1.0262 0.32738 0.32702 0.34008 1.0389 0.036 2.0038-0.0586 0.18627 0.0448 0.38418 0.23037 0.44274 0.18767 0.0586 0.38417-0.0444 0.44273-0.23036 0.39794-1.2644 0.32738-2.1777-0.2099-2.715" fill="#fb5968"/><path d="m109.02 122.57c-5.4264 5.007-9.8778 7.0139-10.892 5.9997-0.57185-0.5715-0.18627-2.1833 1.0262-4.3247-0.14005-0.22083-0.27164-0.44767-0.39511-0.67945-0.03739 0.0494-0.07479 0.0974-0.11218 0.14711-0.0081 0.0113-0.01623 0.0229-0.02293 0.0349-1.0541 1.827-2.0832 4.2333-0.99519 5.321 0.31785 0.31785 0.75812 0.46284 1.2933 0.46249 2.4571-3.4e-4 6.9049-3.0547 10.577-6.4424 0.14323-0.13229 0.1524-0.3556 0.0205-0.49847-0.13229-0.14358-0.35631-0.1517-0.49883-0.0201" fill="#fb5968"/><path d="m116.57 119.65c0 2.3379-1.8955 4.2333-4.2333 4.2333s-4.2333-1.8955-4.2333-4.2333 1.8955-4.2333 4.2333-4.2333 4.2333 1.8955 4.2333 4.2333" fill="#fea82f"/><path d="m112.33 122.83c-2.1583 0-3.9356-1.6164-4.1966-3.7042-0.0219 0.17357-0.0367 0.3496-0.0367 0.52917 0 2.3379 1.8955 4.2333 4.2333 4.2333 2.3379 0 4.2333-1.8955 4.2333-4.2333 0-0.17957-0.0148-0.3556-0.0367-0.52917-0.26106 2.0877-2.0384 3.7042-4.1966 3.7042" fill="#ff8031"/><g fill="#31353d"><path d="m112.33 119.3c-0.38911 0-0.70555-0.3168-0.70555-0.70556 0-0.38911 0.31644-0.70555 0.70555-0.70555 0.38912 0 0.70556 0.31644 0.70556 0.70555 0 0.19509 0.15769 0.35278 0.35277 0.35278 0.19509 0 0.35278-0.15769 0.35278-0.35278 0-0.65546-0.4512-1.2033-1.0583-1.361v-0.40288c0-0.19508-0.15769-0.35277-0.35278-0.35277-0.19508 0-0.35278 0.15769-0.35278 0.35277v0.40288c-0.60712 0.15769-1.0583 0.70555-1.0583 1.361 0 0.77823 0.63288 1.4111 1.4111 1.4111 0.38912 0 0.70556 0.31645 0.70556 0.70556 0 0.38876-0.31644 0.70556-0.70556 0.70556-0.38911 0-0.70555-0.3168-0.70555-0.70556 0-0.19509-0.1577-0.35278-0.35278-0.35278-0.19509 0-0.35278 0.15769-0.35278 0.35278 0 0.65546 0.45121 1.2033 1.0583 1.361v0.40287c0 0.19509 0.1577 0.35278 0.35278 0.35278 0.19509 0 0.35278-0.15769 0.35278-0.35278v-0.40287c0.60713-0.15769 1.0583-0.70556 1.0583-1.361 0-0.77823-0.63288-1.4111-1.4111-1.4111"/><path d="m115.51 119.65c0 0.19508-0.15769 0.35277-0.35278 0.35277-0.19508 0-0.35277-0.15769-0.35277-0.35277 0-0.19509 0.15769-0.35278 0.35277-0.35278 0.19509 0 0.35278 0.15769 0.35278 0.35278"/><path d="m109.87 119.65c0 0.19508-0.15769 0.35277-0.35278 0.35277s-0.35278-0.15769-0.35278-0.35277c0-0.19509 0.15769-0.35278 0.35278-0.35278s0.35278 0.15769 0.35278 0.35278"/></g><path d="m114.8 117.49c-0.0893 0-0.17851-0.0339-0.2473-0.10089-0.59831-0.58808-1.3878-0.91193-2.2222-0.91193s-1.6238 0.32385-2.2221 0.91193c-0.13935 0.13582-0.36231 0.13441-0.49919-5e-3 -0.13652-0.139-0.1344-0.36231 5e-3 -0.49918 0.73131-0.71826 1.6962-1.1137 2.7168-1.1137 1.0206 0 1.9854 0.39546 2.7167 1.1137 0.13899 0.13687 0.14111 0.36018 5e-3 0.49918-0.0691 0.0702-0.16052 0.10548-0.25189 0.10548" fill="#fff"/><path d="m115.86 118.24c0 0.19508-0.15769 0.35277-0.35278 0.35277-0.19508 0-0.35278-0.15769-0.35278-0.35277 0-0.19509 0.1577-0.35278 0.35278-0.35278 0.19509 0 0.35278 0.15769 0.35278 0.35278" fill="#fff"/></g></svg>
