<svg width="21.167mm" height="21.167mm" version="1.1" viewBox="0 0 21.167 21.167" xmlns="http://www.w3.org/2000/svg"><g transform="translate(-62.769 -151.67)"><path d="m69.329 157.76-4.4442 2.02v1.7639h16.933v-1.7639l-4.4442-2.02h-8.045" fill="#ececec"/><path d="m78.45 160.49c0.12457-0.44908 0.19389-0.9218 0.19389-1.4111 0-0.2607-0.0252-0.51505-0.0616-0.76552l-1.2076-0.54893h-8.045l-1.2076 0.54893c-0.0364 0.25047-0.0616 0.50482-0.0616 0.76552 0 0.48931 0.0693 0.96203 0.19389 1.4111h-3.3689v1.0583h16.933v-1.0583h-3.3689" fill="#b6c1ce"/><path d="m67.002 170.01v-8.4667h-1.4111v8.4667h1.4111" fill="#ececec"/><path d="m67.002 170.01v-1.0583h-1.4111v1.0583h1.4111" fill="#b6c1ce"/><g fill="#ffeaa7"><path d="m83.583 163.66c0 0.19508-0.1578 0.35277-0.35278 0.35277s-0.35278-0.15769-0.35278-0.35277c0-0.19509 0.1578-0.35278 0.35278-0.35278s0.35278 0.15769 0.35278 0.35278"/><path d="m80.76 157.31c0 0.19509-0.1578 0.35278-0.35278 0.35278s-0.35278-0.15769-0.35278-0.35278c0-0.19508 0.1578-0.35277 0.35278-0.35277s0.35278 0.15769 0.35278 0.35277"/><path d="m69.471 155.55c0 0.19508-0.1578 0.35277-0.35278 0.35277s-0.35278-0.15769-0.35278-0.35277c0-0.19509 0.1578-0.35278 0.35278-0.35278s0.35278 0.15769 0.35278 0.35278"/><path d="m66.649 157.31c0 0.19509-0.1578 0.35278-0.35278 0.35278s-0.35278-0.15769-0.35278-0.35278c0-0.19508 0.1578-0.35277 0.35278-0.35277s0.35278 0.15769 0.35278 0.35277"/><path d="m63.827 164.37c0 0.19509-0.1578 0.35278-0.35278 0.35278-0.19498 0-0.35278-0.15769-0.35278-0.35278s0.1578-0.35278 0.35278-0.35278c0.19498 0 0.35278 0.15769 0.35278 0.35278"/><path d="m77.938 155.2c0 0.19508-0.15779 0.35278-0.35277 0.35278s-0.35278-0.1577-0.35278-0.35278c0-0.19509 0.1578-0.35278 0.35278-0.35278s0.35277 0.15769 0.35277 0.35278"/></g><path d="m70.53 170.01v-8.4667h-1.4111v8.4667h1.4111" fill="#ececec"/><g fill="#ffeaa7"><path d="m83.23 156.61c-0.19498 0-0.35278 0.15769-0.35278 0.35278v5.2917c0 0.19509 0.1578 0.35278 0.35278 0.35278s0.35278-0.15769 0.35278-0.35278v-5.2917c0-0.19509-0.1578-0.35278-0.35278-0.35278"/><path d="m80.408 152.73c-0.19498 0-0.35278 0.1577-0.35278 0.35278v2.8222c0 0.19509 0.1578 0.35278 0.35278 0.35278s0.35278-0.15769 0.35278-0.35278v-2.8222c0-0.19508-0.1578-0.35278-0.35278-0.35278"/><path d="m69.119 152.73c-0.19498 0-0.35278 0.1577-0.35278 0.35278v1.0583c0 0.19509 0.1578 0.35278 0.35278 0.35278s0.35278-0.15769 0.35278-0.35278v-1.0583c0-0.19508-0.1578-0.35278-0.35278-0.35278"/><path d="m66.296 154.49c-0.19498 0-0.35278 0.15769-0.35278 0.35278v1.0583c0 0.19509 0.1578 0.35278 0.35278 0.35278s0.35278-0.15769 0.35278-0.35278v-1.0583c0-0.19509-0.1578-0.35278-0.35278-0.35278"/><path d="m63.474 158.72c-0.19498 0-0.35278 0.15769-0.35278 0.35277v3.8806c0 0.19509 0.1578 0.35278 0.35278 0.35278 0.19498 0 0.35278-0.15769 0.35278-0.35278v-3.8806c0-0.19508-0.1578-0.35277-0.35278-0.35277"/><path d="m77.585 152.73c-0.19498 0-0.35278 0.1577-0.35278 0.35278v0.70556c0 0.19508 0.1578 0.35277 0.35278 0.35277s0.35277-0.15769 0.35277-0.35277v-0.70556c0-0.19508-0.15779-0.35278-0.35277-0.35278"/></g><path d="m73.352 155.2c0.19498 0 0.35278-0.15769 0.35278-0.35278v-1.4111c0-0.19509-0.1578-0.35278-0.35278-0.35278s-0.35278 0.15769-0.35278 0.35278v1.4111c0 0.19509 0.1578 0.35278 0.35278 0.35278" fill="#ececec"/><path d="m70.53 170.01v-1.0583h-1.4111v1.0583h1.4111" fill="#b6c1ce"/><path d="m77.585 170.01v-8.4667h-1.4111v8.4667h1.4111" fill="#ececec"/><path d="m77.585 170.01v-1.0583h-1.4111v1.0583h1.4111" fill="#b6c1ce"/><path d="m81.113 170.01v-8.4667h-1.4111v8.4667h1.4111" fill="#ececec"/><path d="m81.113 170.01v-1.0583h-1.4111v1.0583h1.4111" fill="#b6c1ce"/><path d="m77.585 159.08c0 2.3379-1.8955 4.2333-4.2333 4.2333s-4.2333-1.8955-4.2333-4.2333c0-2.3378 1.8955-4.2333 4.2333-4.2333s4.2333 1.8955 4.2333 4.2333" fill="#fea82f"/><path d="m73.352 162.25c-2.1584 0-3.9357-1.6164-4.1968-3.7042-0.0216 0.17356-0.0365 0.3496-0.0365 0.52916 0 2.3379 1.8955 4.2333 4.2333 4.2333s4.2333-1.8955 4.2333-4.2333c0-0.17956-0.0149-0.3556-0.0365-0.52916-0.26112 2.0877-2.0384 3.7042-4.1968 3.7042" fill="#ff8031"/><path d="m81.819 171.42v-1.4111h-16.933v1.4111h-0.70556v1.4111h18.344v-1.4111h-0.70555" fill="#ececec"/><path d="m64.885 170.72h16.933v0.70556h-16.933v-0.70556" fill="#b6c1ce"/><path d="m64.18 172.13h18.344v0.70556h-18.344v-0.70556" fill="#b6c1ce"/><path d="m76.527 159.08c0 0.19509-0.1578 0.35278-0.35278 0.35278s-0.35277-0.15769-0.35277-0.35278c0-0.19508 0.15779-0.35277 0.35277-0.35277s0.35278 0.15769 0.35278 0.35277" fill="#31353d"/><path d="m70.883 159.08c0 0.19509-0.1578 0.35278-0.35278 0.35278s-0.35278-0.15769-0.35278-0.35278c0-0.19508 0.1578-0.35277 0.35278-0.35277s0.35278 0.15769 0.35278 0.35277" fill="#31353d"/><g fill="#48c397"><path d="m82.524 156.25c0 0.38947 0.31585 0.70556 0.70556 0.70556s0.70556-0.31609 0.70556-0.70556c0-0.38982-0.31585-0.70555-0.70556-0.70555s-0.70556 0.31573-0.70556 0.70555"/><path d="m79.702 152.37c0 0.38946 0.31584 0.70555 0.70556 0.70555 0.38971 0 0.70555-0.31609 0.70555-0.70555 0-0.38982-0.31584-0.70556-0.70555-0.70556-0.38972 0-0.70556 0.31574-0.70556 0.70556"/><path d="m68.413 152.37c0 0.38946 0.31584 0.70555 0.70556 0.70555 0.38971 0 0.70555-0.31609 0.70555-0.70555 0-0.38982-0.31584-0.70556-0.70555-0.70556-0.38972 0-0.70556 0.31574-0.70556 0.70556"/><path d="m65.591 154.14c0 0.38947 0.31584 0.70556 0.70556 0.70556 0.38971 0 0.70556-0.31609 0.70556-0.70556 0-0.38981-0.31584-0.70555-0.70556-0.70555-0.38971 0-0.70556 0.31574-0.70556 0.70555"/><path d="m62.769 158.37c0 0.38946 0.31584 0.70555 0.70556 0.70555 0.38971 0 0.70556-0.31609 0.70556-0.70555 0-0.38982-0.31584-0.70556-0.70556-0.70556-0.38971 0-0.70556 0.31574-0.70556 0.70556"/><path d="m76.88 152.37c0 0.38946 0.31584 0.70555 0.70556 0.70555 0.38971 0 0.70555-0.31609 0.70555-0.70555 0-0.38982-0.31584-0.70556-0.70555-0.70556-0.38972 0-0.70556 0.31574-0.70556 0.70556"/></g><path d="m73.352 157.31c0.38887 0 0.70556 0.31645 0.70556 0.70556 0 0.19509 0.1578 0.35278 0.35278 0.35278s0.35277-0.15769 0.35277-0.35278c0-0.65546-0.45131-1.2033-1.0583-1.361v-0.40287c0-0.19508-0.1578-0.35278-0.35278-0.35278s-0.35278 0.1577-0.35278 0.35278v0.40287c-0.60702 0.1577-1.0583 0.70556-1.0583 1.361 0 0.77823 0.63281 1.4111 1.4111 1.4111 0.38887 0 0.70556 0.31644 0.70556 0.70556 0 0.38876-0.31669 0.70555-0.70556 0.70555-0.38886 0-0.70555-0.31679-0.70555-0.70555 0-0.19509-0.1578-0.35278-0.35278-0.35278s-0.35278 0.15769-0.35278 0.35278c0 0.65546 0.45131 1.2033 1.0583 1.361v0.40288c0 0.19508 0.1578 0.35277 0.35278 0.35277s0.35278-0.15769 0.35278-0.35277v-0.40288c0.60702-0.15769 1.0583-0.70555 1.0583-1.361 0-0.77823-0.63277-1.4111-1.4111-1.4111-0.38886 0-0.70555-0.3168-0.70555-0.70556 0-0.38911 0.31669-0.70556 0.70555-0.70556" fill="#31353d"/><path d="m75.821 156.91c-0.0892 0-0.17847-0.0339-0.24737-0.1009-0.59849-0.58808-1.3877-0.91193-2.2221-0.91193s-1.6236 0.32385-2.2221 0.91193c-0.13946 0.13582-0.36245 0.13441-0.49929-5e-3 -0.13642-0.139-0.1342-0.3623 5e-3 -0.49918 0.73148-0.71826 1.6964-1.1137 2.7168-1.1137 1.0204 0 1.9853 0.39546 2.7168 1.1137 0.13875 0.13688 0.14097 0.36018 5e-3 0.49918-0.0693 0.0702-0.16055 0.10548-0.25192 0.10548" fill="#fff"/><path d="m76.88 157.67c0 0.19509-0.1578 0.35278-0.35278 0.35278s-0.35278-0.15769-0.35278-0.35278c0-0.19508 0.1578-0.35278 0.35278-0.35278s0.35278 0.1577 0.35278 0.35278" fill="#fff"/></g></svg>
