<?xml version="1.0" encoding="UTF-8" standalone="no"?>
<!-- Created with Inkscape (http://www.inkscape.org/) -->

<svg
   xmlns:dc="http://purl.org/dc/elements/1.1/"
   xmlns:cc="http://creativecommons.org/ns#"
   xmlns:rdf="http://www.w3.org/1999/02/22-rdf-syntax-ns#"
   xmlns:svg="http://www.w3.org/2000/svg"
   xmlns="http://www.w3.org/2000/svg"
   xmlns:sodipodi="http://sodipodi.sourceforge.net/DTD/sodipodi-0.dtd"
   xmlns:inkscape="http://www.inkscape.org/namespaces/inkscape"
   width="28.839584mm"
   height="24.03299mm"
   viewBox="0 0 28.839584 24.032989"
   version="1.1"
   id="svg3305"
   inkscape:version="0.92.3 (2405546, 2018-03-11)"
   sodipodi:docname="drawing.svg">
  <defs
     id="defs3299" />
  <sodipodi:namedview
     id="base"
     pagecolor="#ffffff"
     bordercolor="#666666"
     borderopacity="1.0"
     inkscape:pageopacity="0.0"
     inkscape:pageshadow="2"
     inkscape:zoom="1"
     inkscape:cx="36.81188"
     inkscape:cy="-55.001164"
     inkscape:document-units="mm"
     inkscape:current-layer="layer1"
     showgrid="false"
     inkscape:window-width="1920"
     inkscape:window-height="1018"
     inkscape:window-x="-8"
     inkscape:window-y="-8"
     inkscape:window-maximized="1"
     fit-margin-top="0"
     fit-margin-left="0"
     fit-margin-right="0"
     fit-margin-bottom="0" />
  <metadata
     id="metadata3302">
    <rdf:RDF>
      <cc:Work
         rdf:about="">
        <dc:format>image/svg+xml</dc:format>
        <dc:type
           rdf:resource="http://purl.org/dc/dcmitype/StillImage" />
        <dc:title></dc:title>
      </cc:Work>
    </rdf:RDF>
  </metadata>
  <g
     inkscape:label="Layer 1"
     inkscape:groupmode="layer"
     id="layer1"
     transform="translate(26.748739,-110.24795)">
    <path
       d="m -24.826099,118.89982 v 0 c -1.061777,0 -1.92264,-0.86085 -1.92264,-1.92263 v 0 c 0,-1.06179 0.860863,-1.92264 1.92264,-1.92264 v 0 H 0.16820717 v 0 c 1.06177713,0 1.92263873,0.86085 1.92263873,1.92264 v 0 c 0,1.06178 -0.8608616,1.92263 -1.92263873,1.92263 v 0 H -24.826099"
       style="fill:#8c95a4;fill-opacity:1;fill-rule:nonzero;stroke:none;stroke-width:0.04806598"
       id="path2111"
       inkscape:connector-curvature="0" />
    <path
       d="M -24.826099,118.89982 H 0.16820717 c 1.06177713,0 1.92263873,-0.86085 1.92263873,-1.92263 H -26.748739 c 0,1.06178 0.860863,1.92263 1.92264,1.92263"
       style="fill:#798699;fill-opacity:1;fill-rule:nonzero;stroke:none;stroke-width:0.04806598"
       id="path2113"
       inkscape:connector-curvature="0" />
    <path
       d="m -9.444988,114.09322 c -0.5306487,0 -0.96132,0.4302 -0.96132,0.96133 0,-0.53113 -0.43067,-0.96133 -0.961319,-0.96133 -0.530648,0 -0.96132,0.4302 -0.96132,0.96133 0,-0.53113 -0.430671,-0.96133 -0.961318,-0.96133 -0.530649,0 -0.96132,0.4302 -0.96132,0.96133 0,-0.53113 -0.430672,-0.96133 -0.961319,-0.96133 -0.530649,0 -0.96132,0.4302 -0.96132,0.96133 v 0.96131 0.48066 4.8066 h 7.6905561 v -3.36462 -1.92264 -0.96131 c 0,-0.53113 -0.4306713,-0.96133 -0.9613201,-0.96133"
       style="fill:#fcd770;fill-opacity:1;fill-rule:nonzero;stroke:none;stroke-width:0.04806598"
       id="path2115"
       inkscape:connector-curvature="0" />
    <path
       d="m -18.217028,122.80519 1.562144,2.34321 v 9.13254 h 7.209896 v -9.13254 l 0.9613201,-1.44198 v -5.76792 h -9.6131951 l -0.120159,4.86669"
       style="fill:#fcd770;fill-opacity:1;fill-rule:nonzero;stroke:none;stroke-width:0.04806598"
       id="path2117"
       inkscape:connector-curvature="0" />
    <path
       d="m -15.693564,116.97719 v 3.36461 c 0,0 5.767916,0.48066 7.2098961,3.36462 v -6.72923 h -7.2098961"
       style="fill:#fea82f;fill-opacity:1;fill-rule:nonzero;stroke:none;stroke-width:0.04806598"
       id="path2119"
       inkscape:connector-curvature="0" />
    <path
       d="m -4.6383905,110.24795 h 2.883959 l 1.92263867,0.96133 v 11.53582 l -1.92263867,0.96132 h -2.883959 l -1.9226387,-0.96132 v -11.53582 l 1.9226387,-0.96133"
       style="fill:#fea82f;fill-opacity:1;fill-rule:nonzero;stroke:none;stroke-width:0.04806598"
       id="path2121"
       inkscape:connector-curvature="0" />
    <path
       d="m -4.6383905,122.26444 -1.9226387,-0.96132 v 1.44198 l 1.9226387,0.96132 h 2.883959 l 1.92263867,-0.96132 v -1.44198 l -1.92263867,0.96132 h -2.883959"
       style="fill:#ff8031;fill-opacity:1;fill-rule:nonzero;stroke:none;stroke-width:0.04806598"
       id="path2123"
       inkscape:connector-curvature="0" />
    <path
       d="m -9.444988,118.89982 v 0 c -0.5306487,0 -0.96132,-0.43067 -0.96132,-0.96132 v -2.88395 c 0,-0.53113 0.4306713,-0.96133 0.96132,-0.96133 v 0 c 0.5306488,0 0.9613201,0.4302 0.9613201,0.96133 v 2.88395 c 0,0.53065 -0.4306713,0.96132 -0.9613201,0.96132"
       style="fill:#fcd770;fill-opacity:1;fill-rule:nonzero;stroke:none;stroke-width:0.04806598"
       id="path2125"
       inkscape:connector-curvature="0" />
    <path
       d="m -11.367627,118.89982 v 0 c -0.530648,0 -0.96132,-0.43067 -0.96132,-0.96132 v -2.88395 c 0,-0.53113 0.430672,-0.96133 0.96132,-0.96133 v 0 c 0.530649,0 0.961319,0.4302 0.961319,0.96133 v 2.88395 c 0,0.53065 -0.43067,0.96132 -0.961319,0.96132"
       style="fill:#fcd770;fill-opacity:1;fill-rule:nonzero;stroke:none;stroke-width:0.04806598"
       id="path2127"
       inkscape:connector-curvature="0" />
    <path
       d="m -12.328947,118.41916 h -3.845277 v -2.88395 h 3.845277 v 2.88395"
       style="fill:#fea82f;fill-opacity:1;fill-rule:nonzero;stroke:none;stroke-width:0.04806598"
       id="path2129"
       inkscape:connector-curvature="0" />
    <path
       d="m -22.90346,110.24795 h 2.883958 l 1.922639,0.96133 v 11.53582 l -1.922639,0.96132 h -2.883958 l -1.922639,-0.96132 v -11.53582 l 1.922639,-0.96133"
       style="fill:#fea82f;fill-opacity:1;fill-rule:nonzero;stroke:none;stroke-width:0.04806598"
       id="path2131"
       inkscape:connector-curvature="0" />
    <path
       d="m -22.90346,122.26444 -1.922639,-0.96132 v 1.44198 l 1.922639,0.96132 h 2.883958 l 1.922639,-0.96132 v -1.44198 l -1.922639,0.96132 h -2.883958"
       style="fill:#ff8031;fill-opacity:1;fill-rule:nonzero;stroke:none;stroke-width:0.04806598"
       id="path2133"
       inkscape:connector-curvature="0" />
    <path
       d="m -13.699307,116.97719 h -3.436237 l -0.961319,1.53811 v 1.8265 h 2.403299 l 2.371095,-0.67725 c 0.587846,-0.16822 0.993522,-0.70561 0.993522,-1.317 0,-0.75705 -0.613321,-1.37036 -1.37036,-1.37036"
       style="fill:#fcd770;fill-opacity:1;fill-rule:nonzero;stroke:none;stroke-width:0.04806598"
       id="path2135"
       inkscape:connector-curvature="0" />
    <path
       d="m -3.1964116,116.49652 c -0.5301678,0 -0.9613189,-0.43162 -0.9613189,-0.96131 0,-0.53017 0.4311511,-0.96132 0.9613189,-0.96132 0.5301678,0 0.9613201,0.43115 0.9613201,0.96132 0,0.2658 0.2148539,0.48065 0.48066,0.48065 0.2658046,0 0.4806586,-0.21485 0.4806586,-0.48065 0,-0.89308 -0.6147627,-1.63953 -1.4419787,-1.85439 v -0.54891 c 0,-0.26581 -0.2148553,-0.48066 -0.48066,-0.48066 -0.2658047,0 -0.48066,0.21485 -0.48066,0.48066 v 0.54891 c -0.8272149,0.21486 -1.441979,0.96131 -1.441979,1.85439 0,1.06033 0.8623031,1.92264 1.922639,1.92264 0.5301678,0 0.9613201,0.43115 0.9613201,0.96131 0,0.52969 -0.4311523,0.96133 -0.9613201,0.96133 -0.5301678,0 -0.9613189,-0.43164 -0.9613189,-0.96133 0,-0.26579 -0.2148554,-0.48066 -0.48066,-0.48066 -0.2658047,0 -0.4806601,0.21487 -0.4806601,0.48066 0,0.89307 0.6147641,1.63954 1.441979,1.85439 v 0.54891 c 0,0.26581 0.2148553,0.48066 0.48066,0.48066 0.2658047,0 0.48066,-0.21485 0.48066,-0.48066 v -0.54891 c 0.827216,-0.21485 1.4419787,-0.96132 1.4419787,-1.85439 0,-1.06034 -0.8623031,-1.92264 -1.9226387,-1.92264"
       style="fill:#31353d;fill-opacity:1;fill-rule:nonzero;stroke:none;stroke-width:0.04806598"
       id="path2137"
       inkscape:connector-curvature="0" />
    <path
       d="m -21.461482,114.57389 c 0.530168,0 0.96132,0.43115 0.96132,0.96132 0,0.2658 0.214854,0.48065 0.48066,0.48065 0.265805,0 0.480659,-0.21485 0.480659,-0.48065 0,-0.89308 -0.614763,-1.63953 -1.441979,-1.85439 v -0.54891 c 0,-0.26581 -0.214855,-0.48066 -0.48066,-0.48066 -0.265804,0 -0.48066,0.21485 -0.48066,0.48066 v 0.54891 c -0.827214,0.21486 -1.441978,0.96131 -1.441978,1.85439 0,1.06033 0.862303,1.92264 1.922638,1.92264 0.530168,0 0.96132,0.43115 0.96132,0.96131 0,0.52969 -0.431152,0.96133 -0.96132,0.96133 -0.530167,0 -0.961318,-0.43164 -0.961318,-0.96133 0,-0.26579 -0.214856,-0.48066 -0.48066,-0.48066 -0.265805,0 -0.48066,0.21487 -0.48066,0.48066 0,0.89307 0.614764,1.63954 1.441978,1.85439 v 0.54891 c 0,0.26581 0.214856,0.48066 0.48066,0.48066 0.265805,0 0.48066,-0.21485 0.48066,-0.48066 v -0.54891 c 0.827216,-0.21485 1.441979,-0.96132 1.441979,-1.85439 0,-1.06034 -0.862303,-1.92264 -1.922639,-1.92264 -0.530167,0 -0.961318,-0.43162 -0.961318,-0.96131 0,-0.53017 0.431151,-0.96132 0.961318,-0.96132"
       style="fill:#31353d;fill-opacity:1;fill-rule:nonzero;stroke:none;stroke-width:0.04806598"
       id="path2139"
       inkscape:connector-curvature="0" />
    <path
       d="m -23.86478,116.97719 v 0 c -0.265805,0 -0.48066,-0.21486 -0.48066,-0.48067 v -3.84527 c 0,-0.26581 0.214855,-0.48066 0.48066,-0.48066 v 0 c 0.265804,0 0.48066,0.21485 0.48066,0.48066 v 3.84527 c 0,0.26581 -0.214856,0.48067 -0.48066,0.48067"
       style="fill:#ffffff;fill-opacity:1;fill-rule:nonzero;stroke:none;stroke-width:0.04806598"
       id="path2141"
       inkscape:connector-curvature="0" />
    <path
       d="m -23.38412,118.41916 c 0,0.26581 -0.214856,0.48066 -0.48066,0.48066 -0.265805,0 -0.48066,-0.21485 -0.48066,-0.48066 0,-0.26579 0.214855,-0.48066 0.48066,-0.48066 0.265804,0 0.48066,0.21487 0.48066,0.48066"
       style="fill:#ffffff;fill-opacity:1;fill-rule:nonzero;stroke:none;stroke-width:0.04806598"
       id="path2143"
       inkscape:connector-curvature="0" />
    <path
       d="m -5.5997106,116.97719 v 0 c -0.2658046,0 -0.48066,-0.21486 -0.48066,-0.48067 v -3.84527 c 0,-0.26581 0.2148554,-0.48066 0.48066,-0.48066 v 0 c 0.2658047,0 0.48066,0.21485 0.48066,0.48066 v 3.84527 c 0,0.26581 -0.2148553,0.48067 -0.48066,0.48067"
       style="fill:#ffffff;fill-opacity:1;fill-rule:nonzero;stroke:none;stroke-width:0.04806598"
       id="path2145"
       inkscape:connector-curvature="0" />
    <path
       d="m -5.1190506,118.41916 c 0,0.26581 -0.2148553,0.48066 -0.48066,0.48066 -0.2658046,0 -0.48066,-0.21485 -0.48066,-0.48066 0,-0.26579 0.2148554,-0.48066 0.48066,-0.48066 0.2658047,0 0.48066,0.21487 0.48066,0.48066"
       style="fill:#ffffff;fill-opacity:1;fill-rule:nonzero;stroke:none;stroke-width:0.04806598"
       id="path2147"
       inkscape:connector-curvature="0" />
  </g>
</svg>
