<svg width="21.167mm" height="21.167mm" version="1.1" viewBox="0 0 21.167 21.167" xmlns="http://www.w3.org/2000/svg"><g transform="translate(-44.512 -132.09)"><path d="m64.973 149.02h-2.1167l-0.70556-4.2333h-13.406l-0.70556 4.2333h-2.8222l-0.70556 4.2333h21.167l-0.70556-4.2333" fill="#fea82f"/><path d="m59.329 136.32c0 2.3379-1.8955 4.2333-4.2333 4.2333s-4.2333-1.8955-4.2333-4.2333c0-2.3378 1.8955-4.2333 4.2333-4.2333s4.2333 1.8955 4.2333 4.2333" fill="#fea82f"/><path d="m55.096 139.5c-2.1583 0-3.9356-1.6164-4.1966-3.7042-0.02187 0.17356-0.03669 0.3496-0.03669 0.52916 0 2.3379 1.8955 4.2333 4.2333 4.2333s4.2333-1.8955 4.2333-4.2333c0-0.17956-0.01482-0.3556-0.03669-0.52916-0.26106 2.0877-2.0384 3.7042-4.1966 3.7042" fill="#ff8031"/><path d="m55.096 138.79c-0.77823 0-1.4111-0.63289-1.4111-1.4111 0-0.19509 0.15769-0.35278 0.35278-0.35278 0.19509 0 0.35278 0.15769 0.35278 0.35278 0 0.38876 0.31644 0.70555 0.70556 0.70555s0.70556-0.31679 0.70556-0.70555c0-0.38912-0.31644-0.70556-0.70556-0.70556-0.77823 0-1.4111-0.63288-1.4111-1.4111s0.63288-1.4111 1.4111-1.4111 1.4111 0.63288 1.4111 1.4111c0 0.19509-0.15769 0.35278-0.35278 0.35278s-0.35278-0.15769-0.35278-0.35278c0-0.38911-0.31644-0.70556-0.70556-0.70556s-0.70556 0.31645-0.70556 0.70556c0 0.38876 0.31644 0.70556 0.70556 0.70556 0.77823 0 1.4111 0.63288 1.4111 1.4111 0 0.77822-0.63288 1.4111-1.4111 1.4111" fill="#31353d"/><path d="m55.096 134.56c-0.19509 0-0.35278-0.15769-0.35278-0.35277v-0.70556c0-0.19508 0.15769-0.35278 0.35278-0.35278s0.35278 0.1577 0.35278 0.35278v0.70556c0 0.19508-0.15769 0.35277-0.35278 0.35277" fill="#31353d"/><g fill="#ff8031"><path d="m58.271 153.26-0.70556-4.2333h-4.2333l-0.70556 4.2333h5.6444"/><path d="m51.215 153.26-0.70556-4.2333h-4.2333l-0.70556 4.2333h5.6444"/><path d="m62.739 148.32h-8.1139l-0.58808-3.5278h-4.2333l-0.70556 4.2333h13.758l-0.11748-0.70555"/></g><g fill="#fcd770"><path d="m57.212 153.26-0.70556-4.2333h-4.2333l-0.70556 4.2333h5.6444"/><path d="m50.157 153.26-0.70556-4.2333h-4.2333l-0.70556 4.2333h5.6444"/><path d="m53.685 149.02-0.70556-4.2333h-4.2333l-0.70556 4.2333h5.6444"/></g><g fill="#31353d"><path d="m55.096 139.5c-0.19509 0-0.35278-0.15769-0.35278-0.35277v-0.70556c0-0.19509 0.15769-0.35278 0.35278-0.35278s0.35278 0.15769 0.35278 0.35278v0.70556c0 0.19508-0.15769 0.35277-0.35278 0.35277"/><path d="m58.271 136.32c0 0.19509-0.15769 0.35278-0.35278 0.35278s-0.35278-0.15769-0.35278-0.35278c0-0.19508 0.15769-0.35277 0.35278-0.35277s0.35278 0.15769 0.35278 0.35277"/><path d="m52.626 136.32c0 0.19509-0.15769 0.35278-0.35278 0.35278-0.19509 0-0.35278-0.15769-0.35278-0.35278 0-0.19508 0.15769-0.35277 0.35278-0.35277 0.19509 0 0.35278 0.15769 0.35278 0.35277"/></g><path d="m63.908 145.49c-0.0046 0-0.0092 0-0.01376-3.5e-4 -0.19438-7e-3 -0.34643-0.17109-0.33902-0.36583 0.0042-0.11183 0.0067-0.22507 0.0067-0.33831 0-2.0182-0.72178-3.9723-2.032-5.5026-0.12665-0.14817-0.10936-0.37042 0.0388-0.49742 0.14781-0.12594 0.37006-0.10936 0.49742 0.0388 1.4196 1.6577 2.2013 3.7751 2.2013 5.9612 0 0.12241-0.0025 0.24412-0.0074 0.36512-0.0071 0.19015-0.16334 0.33938-0.35207 0.33938" fill="#ffeaa7"/><path d="m46.304 145.85c-0.18203 0-0.33655-0.14005-0.35137-0.32455-0.0194-0.2413-0.02893-0.48825-0.02893-0.73378 0-2.3869 0.91228-4.6475 2.5682-6.3652 0.13582-0.1397 0.35878-0.14429 0.49883-9e-3 0.14041 0.13476 0.14464 0.35842 0.0092 0.49883-1.5286 1.5854-2.3707 3.6721-2.3707 5.8752 0 0.22719 0.0088 0.45508 0.02681 0.67733 0.01552 0.19439-0.12947 0.36442-0.3235 0.37995-0.0095 7.1e-4 -0.0194 1e-3 -0.02857 1e-3" fill="#ffeaa7"/><path d="m61.093 139.5c-0.58349 0-1.0583-0.47484-1.0583-1.0583s0.47484-1.0583 1.0583-1.0583c0.5835 0 1.0583 0.47484 1.0583 1.0583s-0.47484 1.0583-1.0583 1.0583" fill="#fb5968"/><path d="m46.276 147.26c-0.58349 0-1.0583-0.47484-1.0583-1.0583 0-0.58349 0.47484-1.0583 1.0583-1.0583s1.0583 0.47484 1.0583 1.0583c0 0.5835-0.47484 1.0583-1.0583 1.0583" fill="#fb5968"/><path d="m64.118 146.36c0 0.19509-0.15769 0.35278-0.35278 0.35278-0.19473 0-0.35278-0.15769-0.35278-0.35278 0-0.19473 0.15804-0.35277 0.35278-0.35277 0.19509 0 0.35278 0.15804 0.35278 0.35277" fill="#ffeaa7"/><path d="m50.157 137.73c0 0.19509-0.15769 0.35278-0.35278 0.35278s-0.35278-0.15769-0.35278-0.35278c0-0.19508 0.15769-0.35277 0.35278-0.35277s0.35278 0.15769 0.35278 0.35277" fill="#ffeaa7"/><path d="m48.158 148.32-0.11748 0.70555h5.6444l-0.11748-0.70555h-5.4095" fill="#ffc729"/><g fill="#fff"><path d="m57.565 134.16c-0.08925 0-0.1785-0.0339-0.2473-0.1009-0.59831-0.58808-1.3878-0.91193-2.2221-0.91193s-1.6238 0.32385-2.2221 0.91193c-0.13935 0.13582-0.3623 0.13441-0.49918-5e-3 -0.13652-0.139-0.13441-0.3623 0.0046-0.49918 0.73131-0.71826 1.6962-1.1137 2.7167-1.1137s1.9854 0.39546 2.7167 1.1137c0.13899 0.13688 0.14111 0.36018 0.0046 0.49918-0.06914 0.0702-0.16051 0.10548-0.25188 0.10548"/><path d="m58.623 134.91c0 0.19509-0.15769 0.35278-0.35278 0.35278s-0.35278-0.15769-0.35278-0.35278c0-0.19508 0.15769-0.35278 0.35278-0.35278s0.35278 0.1577 0.35278 0.35278"/><path d="m58.623 146.2h-3.5278c-0.19509 0-0.35278-0.15769-0.35278-0.35278 0-0.19508 0.15769-0.35277 0.35278-0.35277h3.5278c0.19509 0 0.35278 0.15769 0.35278 0.35277 0 0.19509-0.15769 0.35278-0.35278 0.35278"/><path d="m60.387 145.85c0 0.19509-0.15769 0.35278-0.35278 0.35278s-0.35278-0.15769-0.35278-0.35278c0-0.19508 0.15769-0.35277 0.35278-0.35277s0.35278 0.15769 0.35278 0.35277"/><path d="m62.151 150.43h-3.5278c-0.19509 0-0.35278-0.1577-0.35278-0.35278 0-0.19509 0.15769-0.35278 0.35278-0.35278h3.5278c0.19509 0 0.35278 0.15769 0.35278 0.35278 0 0.19508-0.15769 0.35278-0.35278 0.35278"/><path d="m63.915 150.08c0 0.19508-0.15769 0.35278-0.35278 0.35278s-0.35278-0.1577-0.35278-0.35278c0-0.19509 0.15769-0.35278 0.35278-0.35278s0.35278 0.15769 0.35278 0.35278"/></g></g></svg>
