<svg width="21.872mm" height="21.872mm" version="1.1" viewBox="0 0 21.872 21.872" xmlns="http://www.w3.org/2000/svg"><g transform="translate(-71.059 -153.96)"><path d="m84.112 167.37c-0.69074 0-1.3155 0.2861-1.7639 0.74436v-5.3305c0-0.19508-0.15769-0.35277-0.35278-0.35277s-0.35278 0.15769-0.35278 0.35277v5.3305c-0.44838-0.45826-1.0732-0.74436-1.7639-0.74436-0.19509 0-0.35278 0.15769-0.35278 0.35277 0 0.19509 0.15769 0.35278 0.35278 0.35278 0.97261 0 1.7639 0.79128 1.7639 1.7639v2.1167c0 0.19508 0.15769 0.35278 0.35278 0.35278s0.35278-0.1577 0.35278-0.35278v-2.1167c0-0.97261 0.79128-1.7639 1.7639-1.7639 0.19509 0 0.35278-0.15769 0.35278-0.35278 0-0.19508-0.15769-0.35277-0.35278-0.35277" fill="#b27946"/><path d="m86.228 158.55c0 2.3379-1.8955 4.2333-4.2333 4.2333-2.3379 0-4.2333-1.8955-4.2333-4.2333s1.8955-4.2333 4.2333-4.2333c2.3379 0 4.2333 1.8955 4.2333 4.2333" fill="#fea82f"/><path d="m81.995 161.72c-2.1583 0-3.9356-1.6164-4.1966-3.7042-0.02187 0.17357-0.03669 0.34961-0.03669 0.52917 0 2.3379 1.8955 4.2333 4.2333 4.2333 2.3379 0 4.2333-1.8955 4.2333-4.2333 0-0.17956-0.01482-0.3556-0.03669-0.52917-0.26106 2.0877-2.0384 3.7042-4.1966 3.7042" fill="#ff8031"/><g fill="#31353d"><path d="m85.17 158.55c0 0.19509-0.15769 0.35278-0.35278 0.35278s-0.35278-0.15769-0.35278-0.35278c0-0.19508 0.15769-0.35278 0.35278-0.35278s0.35278 0.1577 0.35278 0.35278"/><path d="m79.526 158.55c0 0.19509-0.15769 0.35278-0.35278 0.35278-0.19509 0-0.35278-0.15769-0.35278-0.35278 0-0.19508 0.15769-0.35278 0.35278-0.35278 0.19509 0 0.35278 0.1577 0.35278 0.35278"/><path d="m81.995 156.78c0.38911 0 0.70556 0.31644 0.70556 0.70556 0 0.19508 0.15769 0.35278 0.35278 0.35278s0.35278-0.1577 0.35278-0.35278c0-0.65546-0.4512-1.2033-1.0583-1.361v-0.40287c0-0.19509-0.15769-0.35278-0.35278-0.35278s-0.35278 0.15769-0.35278 0.35278v0.40287c-0.60713 0.15769-1.0583 0.70556-1.0583 1.361 0 0.77823 0.63288 1.4111 1.4111 1.4111 0.38911 0 0.70556 0.31644 0.70556 0.70555 0 0.38877-0.31644 0.70556-0.70556 0.70556s-0.70556-0.31679-0.70556-0.70556c0-0.19508-0.15769-0.35277-0.35278-0.35277-0.19509 0-0.35278 0.15769-0.35278 0.35277 0 0.65547 0.4512 1.2033 1.0583 1.361v0.40287c0 0.19509 0.15769 0.35278 0.35278 0.35278s0.35278-0.15769 0.35278-0.35278v-0.40287c0.60713-0.15769 1.0583-0.70555 1.0583-1.361 0-0.77822-0.63288-1.4111-1.4111-1.4111-0.38911 0-0.70556-0.31679-0.70556-0.70555 0-0.38912 0.31644-0.70556 0.70556-0.70556"/></g><g fill="#ffc729"><path d="m88.345 155.37c0.19509 0 0.35278-0.15769 0.35278-0.35278v-0.70555c0-0.19509-0.15769-0.35278-0.35278-0.35278s-0.35278 0.15769-0.35278 0.35278v0.70555c0 0.19509 0.15769 0.35278 0.35278 0.35278"/><path d="m88.698 156.43c0-0.19508-0.15769-0.35277-0.35278-0.35277s-0.35278 0.15769-0.35278 0.35277v0.70556c0 0.19509 0.15769 0.35278 0.35278 0.35278s0.35278-0.15769 0.35278-0.35278v-0.70556"/><path d="m89.051 156.08h0.70556c0.19509 0 0.35278-0.15769 0.35278-0.35278s-0.15769-0.35278-0.35278-0.35278h-0.70556c-0.19509 0-0.35278 0.15769-0.35278 0.35278s0.15769 0.35278 0.35278 0.35278"/><path d="m87.639 155.37h-0.70556c-0.19509 0-0.35278 0.15769-0.35278 0.35278s0.15769 0.35278 0.35278 0.35278h0.70556c0.19509 0 0.35278-0.15769 0.35278-0.35278s-0.15769-0.35278-0.35278-0.35278"/><path d="m74.939 160.31c0.19509 0 0.35278-0.15769 0.35278-0.35278v-0.70555c0-0.19509-0.15769-0.35278-0.35278-0.35278s-0.35278 0.15769-0.35278 0.35278v0.70555c0 0.19509 0.15769 0.35278 0.35278 0.35278"/><path d="m74.939 161.02c-0.19509 0-0.35278 0.15769-0.35278 0.35277v0.70556c0 0.19509 0.15769 0.35278 0.35278 0.35278s0.35278-0.15769 0.35278-0.35278v-0.70556c0-0.19508-0.15769-0.35277-0.35278-0.35277"/><path d="m76.351 160.31h-0.70556c-0.19509 0-0.35278 0.15769-0.35278 0.35278 0 0.19508 0.15769 0.35278 0.35278 0.35278h0.70556c0.19509 0 0.35278-0.1577 0.35278-0.35278 0-0.19509-0.15769-0.35278-0.35278-0.35278"/><path d="m74.234 160.31h-0.70556c-0.19509 0-0.35278 0.15769-0.35278 0.35278 0 0.19508 0.15769 0.35278 0.35278 0.35278h0.70556c0.19509 0 0.35278-0.1577 0.35278-0.35278 0-0.19509-0.15769-0.35278-0.35278-0.35278"/><path d="m90.109 160.66c0 0.19508 0.15769 0.35278 0.35278 0.35278s0.35278-0.1577 0.35278-0.35278v-0.70556c0-0.19508-0.15769-0.35278-0.35278-0.35278s-0.35278 0.1577-0.35278 0.35278v0.70556"/><path d="m90.462 161.72c-0.19509 0-0.35278 0.15769-0.35278 0.35278v0.70555c0 0.19509 0.15769 0.35278 0.35278 0.35278s0.35278-0.15769 0.35278-0.35278v-0.70555c0-0.19509-0.15769-0.35278-0.35278-0.35278"/><path d="m91.873 161.02h-0.70556c-0.19509 0-0.35278 0.15769-0.35278 0.35277 0 0.19509 0.15769 0.35278 0.35278 0.35278h0.70556c0.19509 0 0.35278-0.15769 0.35278-0.35278 0-0.19508-0.15769-0.35277-0.35278-0.35277"/><path d="m89.756 161.02h-0.70556c-0.19509 0-0.35278 0.15769-0.35278 0.35277 0 0.19509 0.15769 0.35278 0.35278 0.35278h0.70556c0.19509 0 0.35278-0.15769 0.35278-0.35278 0-0.19508-0.15769-0.35277-0.35278-0.35277"/></g><path d="m71.059 175.48c0 0.19508 0.15769 0.35277 0.35278 0.35277s0.35278-0.15769 0.35278-0.35277c0-0.19509-0.15769-0.35278-0.35278-0.35278s-0.35278 0.15769-0.35278 0.35278" fill="#b27946"/><path d="m84.112 168.07h2.8222c1.5586 0 2.8222-1.2636 2.8222-2.8222h-2.8222c-1.5586 0-2.8222 1.2636-2.8222 2.8222" fill="#48c397"/><path d="m74.234 165.25h2.8222c1.5586 0 2.8222 1.2636 2.8222 2.8222h-2.8222c-1.5586 0-2.8222-1.2636-2.8222-2.8222" fill="#48c397"/><path d="m79.878 175.48h4.2333v-3.5278h-4.2333v3.5278" fill="#fb5968"/><path d="m79.878 175.48h4.2333v-1.0583h-4.2333v1.0583" fill="#cd2c5a"/><path d="m86.228 170.54v4.9389h4.2333v-4.9389h-4.2333" fill="#fb5968"/><path d="m86.228 174.42v1.0583h4.2333v-1.0583h-4.2333" fill="#cd2c5a"/><path d="m73.528 175.48h4.2333v-2.1167h-4.2333v2.1167" fill="#fb5968"/><path d="m73.528 175.48h4.2333v-1.0583h-4.2333v1.0583" fill="#cd2c5a"/><path d="m91.167 175.83h-18.344c-0.19509 0-0.35278-0.15769-0.35278-0.35277 0-0.19509 0.15769-0.35278 0.35278-0.35278h18.344c0.19509 0 0.35278 0.15769 0.35278 0.35278 0 0.19508-0.15769 0.35277-0.35278 0.35277" fill="#b27946"/><path d="m92.226 175.48c0 0.19508 0.15769 0.35277 0.35278 0.35277 0.19509 0 0.35278-0.15769 0.35278-0.35277 0-0.19509-0.15769-0.35278-0.35278-0.35278-0.19509 0-0.35278 0.15769-0.35278 0.35278" fill="#b27946"/><path d="m84.464 156.39c-0.08925 0-0.1785-0.0339-0.2473-0.1009-0.59831-0.58808-1.3878-0.91193-2.2221-0.91193-0.83432 0-1.6238 0.32385-2.2221 0.91193-0.13935 0.13582-0.3623 0.13441-0.49918-5e-3 -0.13652-0.139-0.13441-0.36231 0.0046-0.49918 0.73131-0.71826 1.6962-1.1137 2.7167-1.1137s1.9854 0.39546 2.7167 1.1137c0.13899 0.13687 0.14111 0.36018 0.0046 0.49918-0.06914 0.0702-0.16051 0.10548-0.25188 0.10548" fill="#fff"/><path d="m85.523 157.14c0 0.19509-0.15769 0.35278-0.35278 0.35278s-0.35278-0.15769-0.35278-0.35278 0.15769-0.35278 0.35278-0.35278 0.35278 0.15769 0.35278 0.35278" fill="#fff"/></g></svg>
