<?xml version="1.0" encoding="UTF-8" standalone="no"?>
<!-- Created with Inkscape (http://www.inkscape.org/) -->

<svg
   xmlns:dc="http://purl.org/dc/elements/1.1/"
   xmlns:cc="http://creativecommons.org/ns#"
   xmlns:rdf="http://www.w3.org/1999/02/22-rdf-syntax-ns#"
   xmlns:svg="http://www.w3.org/2000/svg"
   xmlns="http://www.w3.org/2000/svg"
   xmlns:sodipodi="http://sodipodi.sourceforge.net/DTD/sodipodi-0.dtd"
   xmlns:inkscape="http://www.inkscape.org/namespaces/inkscape"
   width="21.166668mm"
   height="21.16667mm"
   viewBox="0 0 21.166668 21.16667"
   version="1.1"
   id="svg3305"
   inkscape:version="0.92.3 (2405546, 2018-03-11)"
   sodipodi:docname="drawing.svg">
  <defs
     id="defs3299" />
  <sodipodi:namedview
     id="base"
     pagecolor="#ffffff"
     bordercolor="#666666"
     borderopacity="1.0"
     inkscape:pageopacity="0.0"
     inkscape:pageshadow="2"
     inkscape:zoom="1"
     inkscape:cx="-66.188124"
     inkscape:cy="-45.501173"
     inkscape:document-units="mm"
     inkscape:current-layer="layer1"
     showgrid="false"
     inkscape:window-width="1920"
     inkscape:window-height="1018"
     inkscape:window-x="-8"
     inkscape:window-y="-8"
     inkscape:window-maximized="1"
     fit-margin-top="0"
     fit-margin-left="0"
     fit-margin-right="0"
     fit-margin-bottom="0" />
  <metadata
     id="metadata3302">
    <rdf:RDF>
      <cc:Work
         rdf:about="">
        <dc:format>image/svg+xml</dc:format>
        <dc:type
           rdf:resource="http://purl.org/dc/dcmitype/StillImage" />
        <dc:title></dc:title>
      </cc:Work>
    </rdf:RDF>
  </metadata>
  <g
     inkscape:label="Layer 1"
     inkscape:groupmode="layer"
     id="layer1"
     transform="translate(-0.50334533,-115.62781)">
    <path
       d="m 8.9700123,120.5667 h -6.35 c -1.168753,0 -2.11666697,0.94756 -2.11666697,2.11667 v 11.99444 c 0,1.16875 0.94791397,2.11667 2.11666697,2.11667 H 19.553346 c 1.168753,0 2.116667,-0.94792 2.116667,-2.11667 v -11.99444 c 0,-1.16911 -0.947914,-2.11667 -2.116667,-2.11667 H 18.84779 8.9700123"
       style="fill:#fea82f;fill-opacity:1;fill-rule:nonzero;stroke:none;stroke-width:0.03527778"
       id="path2667"
       inkscape:connector-curvature="0" />
    <path
       d="m 8.9700123,121.97781 h -5.997222 c -0.584553,0 -1.058334,0.47378 -1.058334,1.05833 v 11.28889 c 0,0.58456 0.473781,1.05834 1.058334,1.05834 H 19.200568 c 0.584553,0 1.058333,-0.47378 1.058333,-1.05834 v -11.28889 c 0,-0.58455 -0.47378,-1.05833 -1.058333,-1.05833 H 18.84779 8.9700123"
       style="fill:#48c397;fill-opacity:1;fill-rule:nonzero;stroke:none;stroke-width:0.03527778"
       id="path2669"
       inkscape:connector-curvature="0" />
    <path
       d="m 15.67279,129.03337 h 4.586111 v 2.82222 h -4.938889 v 3.52778 H 12.49779 v -3.52778 H 1.9144563 v -2.82222 h 2.822223 v -7.05556 h 2.822222 v 7.05556 h 4.5861107 3.527778"
       style="fill:#ececec;fill-opacity:1;fill-rule:nonzero;stroke:none;stroke-width:0.03527778"
       id="path2671"
       inkscape:connector-curvature="0" />
    <path
       d="m 1.9144563,130.44448 v 1.41111 H 12.49779 v 3.52778 h 2.822222 v -3.52778 h 4.938889 v -1.41111 H 1.9144563"
       style="fill:#b6c1ce;fill-opacity:1;fill-rule:nonzero;stroke:none;stroke-width:0.03527778"
       id="path2673"
       inkscape:connector-curvature="0" />
    <path
       d="m 8.9700123,120.5667 v 0.0201 c 0,0.68439 0.14217,1.36207 0.418395,1.98861 l 3.0360047,6.90033 c 0.258939,0.58879 0.841375,0.96873 1.484489,0.96873 v 0 c 0.643114,0 1.22555,-0.37994 1.484489,-0.96873 l 3.036006,-6.90033 c 0.276225,-0.62654 0.418394,-1.30422 0.418394,-1.98861 v -0.0201 c 0,-2.72768 -2.211211,-4.93889 -4.938889,-4.93889 v 0 c -2.727678,0 -4.9388887,2.21121 -4.9388887,4.93889"
       style="fill:#fb5968;fill-opacity:1;fill-rule:nonzero;stroke:none;stroke-width:0.03527778"
       id="path2675"
       inkscape:connector-curvature="0" />
    <path
       d="m 10.381123,120.5667 c 0,1.94804 1.579739,3.52778 3.527778,3.52778 1.948039,0 3.527778,-1.57974 3.527778,-3.52778 0,-1.94839 -1.579739,-3.52778 -3.527778,-3.52778 -1.948039,0 -3.527778,1.57939 -3.527778,3.52778"
       style="fill:#fea82f;fill-opacity:1;fill-rule:nonzero;stroke:none;stroke-width:0.03527778"
       id="path2677"
       inkscape:connector-curvature="0" />
    <path
       d="m 13.908901,123.03614 c -1.768122,0 -3.227916,-1.30175 -3.48368,-2.99861 -0.02611,0.17286 -0.0441,0.3489 -0.0441,0.52917 0,1.94804 1.579739,3.52778 3.527778,3.52778 1.948039,0 3.527778,-1.57974 3.527778,-3.52778 0,-0.18027 -0.01799,-0.35631 -0.0441,-0.52917 -0.255764,1.69686 -1.715559,2.99861 -3.483681,2.99861"
       style="fill:#ff8031;fill-opacity:1;fill-rule:nonzero;stroke:none;stroke-width:0.03527778"
       id="path2679"
       inkscape:connector-curvature="0" />
    <path
       d="m 14.261679,120.21392 h -0.705556 c -0.194733,0 -0.352777,-0.15804 -0.352777,-0.35278 0,-0.19473 0.158044,-0.35277 0.352777,-0.35277 h 0.705556 c 0.194733,0 0.352778,0.15804 0.352778,0.35277 0,0.19509 0.157691,0.35278 0.352778,0.35278 0.195086,0 0.352777,-0.15769 0.352777,-0.35278 0,-0.58349 -0.474839,-1.05833 -1.058333,-1.05833 v -0.35278 c 0,-0.19508 -0.157692,-0.35278 -0.352778,-0.35278 -0.195086,0 -0.352778,0.1577 -0.352778,0.35278 v 0.35278 c -0.583494,0 -1.058333,0.47484 -1.058333,1.05833 0,0.5835 0.474839,1.05834 1.058333,1.05834 h 0.705556 c 0.194733,0 0.352778,0.15804 0.352778,0.35277 0,0.19474 -0.158045,0.35278 -0.352778,0.35278 h -0.705556 c -0.194733,0 -0.352777,-0.15804 -0.352777,-0.35278 0,-0.19508 -0.157692,-0.35277 -0.352778,-0.35277 -0.195086,0 -0.352778,0.15769 -0.352778,0.35277 0,0.5835 0.474839,1.05834 1.058333,1.05834 v 0.35278 c 0,0.19508 0.157692,0.35277 0.352778,0.35277 0.195086,0 0.352778,-0.15769 0.352778,-0.35277 v -0.35278 c 0.583494,0 1.058333,-0.47484 1.058333,-1.05834 0,-0.58349 -0.474839,-1.05833 -1.058333,-1.05833"
       style="fill:#31353d;fill-opacity:1;fill-rule:nonzero;stroke:none;stroke-width:0.03527778"
       id="path2681"
       inkscape:connector-curvature="0" />
    <path
       d="m 14.261679,125.50559 c 0,0.19508 -0.157692,0.35278 -0.352778,0.35278 -0.195086,0 -0.352778,-0.1577 -0.352778,-0.35278 0,-0.19509 0.157692,-0.35278 0.352778,-0.35278 0.195086,0 0.352778,0.15769 0.352778,0.35278"
       style="fill:#31353d;fill-opacity:1;fill-rule:nonzero;stroke:none;stroke-width:0.03527778"
       id="path2683"
       inkscape:connector-curvature="0" />
    <path
       d="m 14.261679,126.9167 c 0,0.19509 -0.157692,0.35278 -0.352778,0.35278 -0.195086,0 -0.352778,-0.15769 -0.352778,-0.35278 0,-0.19509 0.157692,-0.35278 0.352778,-0.35278 0.195086,0 0.352778,0.15769 0.352778,0.35278"
       style="fill:#31353d;fill-opacity:1;fill-rule:nonzero;stroke:none;stroke-width:0.03527778"
       id="path2685"
       inkscape:connector-curvature="0" />
    <path
       d="m 14.261679,128.32781 c 0,0.19509 -0.157692,0.35278 -0.352778,0.35278 -0.195086,0 -0.352778,-0.15769 -0.352778,-0.35278 0,-0.19509 0.157692,-0.35278 0.352778,-0.35278 0.195086,0 0.352778,0.15769 0.352778,0.35278"
       style="fill:#31353d;fill-opacity:1;fill-rule:nonzero;stroke:none;stroke-width:0.03527778"
       id="path2687"
       inkscape:connector-curvature="0" />
    <path
       d="m 16.025568,119.05716 c -0.09772,0 -0.195086,-0.0406 -0.264936,-0.11959 -0.4699,-0.5341 -1.144764,-0.84032 -1.851731,-0.84032 -0.706966,0 -1.38183,0.30622 -1.85173,0.84032 -0.129117,0.14676 -0.35172,0.15981 -0.498123,0.0318 -0.14605,-0.12912 -0.160161,-0.35172 -0.03175,-0.49812 0.603956,-0.68615 1.472142,-1.0795 2.381603,-1.0795 0.909461,0 1.777647,0.39335 2.381603,1.0795 0.128411,0.1464 0.1143,0.369 -0.03175,0.49812 -0.06703,0.0589 -0.150283,0.0878 -0.233186,0.0878"
       style="fill:#ffffff;fill-opacity:1;fill-rule:nonzero;stroke:none;stroke-width:0.03527778"
       id="path2689"
       inkscape:connector-curvature="0" />
    <path
       d="m 17.010876,119.74543 c 0,0.19474 -0.157691,0.35278 -0.352778,0.35278 -0.194733,0 -0.352777,-0.15804 -0.352777,-0.35278 0,-0.19508 0.158044,-0.35278 0.352777,-0.35278 0.195087,0 0.352778,0.1577 0.352778,0.35278"
       style="fill:#ffffff;fill-opacity:1;fill-rule:nonzero;stroke:none;stroke-width:0.03527778"
       id="path2691"
       inkscape:connector-curvature="0" />
  </g>
</svg>
