<svg width="21.872mm" height="21.167mm" version="1.1" viewBox="0 0 21.872 21.167" xmlns="http://www.w3.org/2000/svg"><g transform="translate(-11.88 -105.37)"><path d="m26.697 123 2.0814-2.0818c0.17498-0.17459 0.30868-0.39219 0.35948-0.63387 0.16969-0.80688-0.44132-1.5176-1.2185-1.5176h-0.11148c-0.26352 0-0.52 0.0832-0.73342 0.23854l-3.5525 2.5837v1.4111h3.175" fill="#fea82f"/><path d="m30.742 118.77h-0.11148c-0.26352 0-0.52 0.0832-0.73342 0.23854l-3.5525 2.5837h-5.0624c0.09701-0.20285 0.1457-0.43258 0.11395-0.67952-0.08149-0.63349-0.66287-1.0844-1.3018-1.0844h-3.2748l-4.5861 2.8222v2.4694c0 0.77928 0.63182 1.4111 1.4111 1.4111h3.5278l2.1167-1.4111h6.9451c0.74824 0 1.4661-0.29778 1.9953-0.82695l3.3715-3.3715c0.17498-0.17459 0.30868-0.39219 0.35948-0.63387 0.16969-0.80688-0.44132-1.5176-1.2185-1.5176" fill="#fcd770"/><path d="m29.167 111.72c0 3.5065-2.843 6.35-6.35 6.35s-6.35-2.8435-6.35-6.35c0-3.507 2.843-6.35 6.35-6.35s6.35 2.843 6.35 6.35" fill="#fea82f"/><path d="m21.282 121.59v-4.2e-4c-0.19826 0.41631-0.61948 0.70597-1.1112 0.70597h1.0583c0.49177 0 0.91264-0.28966 1.1112-0.70555h-1.0583" fill="#fea82f"/><path d="m22.817 116.3c-3.2071 0-5.8515-2.3799-6.2819-5.468-0.04022 0.28857-0.06809 0.58137-0.06809 0.88194 0 3.5065 2.843 6.35 6.35 6.35s6.35-2.8435 6.35-6.35c0-0.30057-0.02787-0.59337-0.06809-0.88194-0.43039 3.0882-3.0748 5.468-6.2819 5.468" fill="#ff8031"/><path d="m23.522 111.36h-1.4111c-0.58349 0-1.0583-0.47487-1.0583-1.0583s0.47484-1.0583 1.0583-1.0583h1.4111c0.5835 0 1.0583 0.47487 1.0583 1.0583 0 0.19512 0.15769 0.35278 0.35278 0.35278 0.19509 0 0.35278-0.15766 0.35278-0.35278 0-0.97303-0.79128-1.7639-1.7639-1.7639h-0.35278v-1.0583c0-0.19509-0.15769-0.35278-0.35278-0.35278s-0.35278 0.15769-0.35278 0.35278v1.0583h-0.35278c-0.97261 0-1.7639 0.79086-1.7639 1.7639 0 0.97222 0.79128 1.7639 1.7639 1.7639h1.4111c0.5835 0 1.0583 0.47487 1.0583 1.0583s-0.47484 1.0583-1.0583 1.0583h-1.4111c-0.58349 0-1.0583-0.47487-1.0583-1.0583 0-0.19512-0.15769-0.35278-0.35278-0.35278s-0.35278 0.15766-0.35278 0.35278c0 0.97222 0.79128 1.7639 1.7639 1.7639h0.35278v1.0583c0 0.19513 0.15769 0.35278 0.35278 0.35278s0.35278-0.15765 0.35278-0.35278v-1.0583h0.35278c0.97261 0 1.7639-0.79167 1.7639-1.7639 0-0.97303-0.79128-1.7639-1.7639-1.7639" fill="#31353d"/><g fill="#ffc729"><path d="m31.989 110.66c-0.19509 0-0.35278-0.15766-0.35278-0.35278v-0.70556c0-0.19512 0.15769-0.35277 0.35278-0.35277s0.35278 0.15765 0.35278 0.35277v0.70556c0 0.19512-0.15769 0.35278-0.35278 0.35278"/><path d="m31.989 112.77c-0.19509 0-0.35278-0.15765-0.35278-0.35277v-0.70556c0-0.19512 0.15769-0.35278 0.35278-0.35278s0.35278 0.15766 0.35278 0.35278v0.70556c0 0.19512-0.15769 0.35277-0.35278 0.35277"/><path d="m33.4 111.36h-0.70556c-0.19509 0-0.35278-0.15765-0.35278-0.35278 0-0.19512 0.15769-0.35277 0.35278-0.35277h0.70556c0.19509 0 0.35278 0.15765 0.35278 0.35277 0 0.19513-0.15769 0.35278-0.35278 0.35278"/><path d="m31.283 111.36h-0.70556c-0.19509 0-0.35278-0.15765-0.35278-0.35278 0-0.19512 0.15769-0.35277 0.35278-0.35277h0.70556c0.19509 0 0.35278 0.15765 0.35278 0.35277 0 0.19513-0.15769 0.35278-0.35278 0.35278"/><path d="m15.408 116.65c-0.19509 0-0.35278-0.15766-0.35278-0.35278v-0.70555c0-0.19513 0.15769-0.35278 0.35278-0.35278s0.35278 0.15765 0.35278 0.35278v0.70555c0 0.19512-0.15769 0.35278-0.35278 0.35278"/><path d="m15.408 118.77c-0.19509 0-0.35278-0.15766-0.35278-0.35278v-0.70556c0-0.19512 0.15769-0.35277 0.35278-0.35277s0.35278 0.15765 0.35278 0.35277v0.70556c0 0.19512-0.15769 0.35278-0.35278 0.35278"/><path d="m16.819 117.36h-0.70556c-0.19509 0-0.35278-0.15766-0.35278-0.35278s0.15769-0.35278 0.35278-0.35278h0.70556c0.19509 0 0.35278 0.15766 0.35278 0.35278s-0.15769 0.35278-0.35278 0.35278"/><path d="m14.703 117.36h-0.70556c-0.19509 0-0.35278-0.15766-0.35278-0.35278s0.15769-0.35278 0.35278-0.35278h0.70556c0.19509 0 0.35278 0.15766 0.35278 0.35278s-0.15769 0.35278-0.35278 0.35278"/><path d="m13.644 107.13c-0.19509 0-0.35278-0.15769-0.35278-0.35278v-0.70555c0-0.19509 0.15769-0.35278 0.35278-0.35278s0.35278 0.15769 0.35278 0.35278v0.70555c0 0.19509-0.15769 0.35278-0.35278 0.35278"/><path d="m13.644 109.25c-0.19509 0-0.35278-0.15766-0.35278-0.35278v-0.70556c0-0.19512 0.15769-0.35278 0.35278-0.35278s0.35278 0.15766 0.35278 0.35278v0.70556c0 0.19512-0.15769 0.35278-0.35278 0.35278"/><path d="m15.055 107.84h-0.70556c-0.19509 0-0.35278-0.15765-0.35278-0.35277 0-0.19509 0.15769-0.35278 0.35278-0.35278h0.70556c0.19509 0 0.35278 0.15769 0.35278 0.35278 0 0.19512-0.15769 0.35277-0.35278 0.35277"/><path d="m12.939 107.84h-0.70556c-0.19509 0-0.35278-0.15765-0.35278-0.35277 0-0.19509 0.15769-0.35278 0.35278-0.35278h0.70556c0.19509 0 0.35278 0.15769 0.35278 0.35278 0 0.19512-0.15769 0.35277-0.35278 0.35277"/></g><path d="m26.697 108.48c-0.0949 0-0.18944-0.0376-0.25894-0.11286-0.94862-1.0251-2.2345-1.5896-3.6216-1.5896-1.3871 0-2.673 0.56445-3.6216 1.5896-0.133 0.14263-0.35595 0.15103-0.49883 0.0194-0.14288-0.13296-0.15134-0.35552-0.01905-0.49911 1.0679-1.154 2.5767-1.8154 4.1395-1.8154 1.5628 0 3.0716 0.66146 4.1395 1.8154 0.13229 0.14359 0.12382 0.36615-0.01905 0.49911-0.06809 0.0625-0.15416 0.0935-0.23989 0.0935" fill="#fff"/><path d="m27.755 109.25c0 0.19473-0.15769 0.35277-0.35278 0.35277s-0.35278-0.15804-0.35278-0.35277c0-0.19513 0.15769-0.35278 0.35278-0.35278s0.35278 0.15765 0.35278 0.35278" fill="#fff"/></g></svg>
