<svg width="18.344mm" height="21.406mm" version="1.1" viewBox="0 0 18.344 21.406" xmlns="http://www.w3.org/2000/svg"><g transform="translate(-36.222 -142.64)"><path d="m45.394 162.28c-0.58455 0-1.0583-0.47378-1.0583-1.0583 0-0.58455 0.47378-1.0583 1.0583-1.0583s1.0583 0.47378 1.0583 1.0583c0 0.58456-0.47378 1.0583-1.0583 1.0583zm5.6257-4.21c-0.14217-1.2559-1.1462-2.2892-2.3982-2.4642-1.0051-0.14076-1.9233 0.25118-2.522 0.93134v-2.4941c0.82162-0.29104 1.4111-1.0724 1.4111-1.9936v-1.4111c0-1.1733-0.95497-2.1241-2.1301-2.1167-0.38453 2e-3 -0.69215-0.32103-0.69215-0.70555v-1.3734c0-0.35172 0.24024-0.67733 0.58702-0.73378 0.44203-0.072 0.82409 0.26741 0.82409 0.69603v0.70556h1.4111v-0.61666c0-0.93415-0.58032-1.7706-1.4111-2.0789v-0.83221c0-0.38982-0.31609-0.70555-0.70556-0.70555-0.38947 0-0.70556 0.31573-0.70556 0.70555v0.82868c-0.82162 0.29104-1.4111 1.0724-1.4111 1.9935v1.4111c0 1.1733 0.95497 2.1237 2.1301 2.1167 0.38453-2e-3 0.69215 0.32103 0.69215 0.70556v1.3571c0 0.3609-0.24518 0.70203-0.6029 0.75213-0.43533 0.0614-0.80821-0.27482-0.80821-0.69815v-0.70556h-1.4111v0.61666c0 0.9338 0.58032 1.7706 1.4111 2.0789v2.4977c-0.59866-0.68016-1.5169-1.0721-2.522-0.93134-1.252 0.17498-2.256 1.2083-2.3982 2.4642-0.19297 1.706 1.1363 3.1517 2.8035 3.1517 0 1.5586 1.2636 2.8222 2.8222 2.8222 1.5586 0 2.8222-1.2636 2.8222-2.8222 1.6672 0 2.9965-1.4457 2.8035-3.1517" fill="#fea82f"/><path d="m51.02 158.07c-0.11924-1.0527-0.8449-1.947-1.8136-2.3125 0.40958 0.43321 0.6858 0.99307 0.7553 1.6069 0.19297 1.706-1.1363 3.1517-2.8035 3.1517 0 1.5586-1.2636 2.8222-2.8222 2.8222-0.35031 0-0.68439-0.0667-0.99413-0.1838 0.5147 0.54645 1.2428 0.88935 2.0525 0.88935 1.5586 0 2.8222-1.2636 2.8222-2.8222 1.6672 0 2.9965-1.4457 2.8035-3.1517" fill="#ff8031"/><g fill="#ffc729"><path d="m39.044 149.58h-2.4694c-0.19509 0-0.35278-0.1577-0.35278-0.35278 0-0.19509 0.15769-0.35278 0.35278-0.35278h2.4694c0.19509 0 0.35278 0.15769 0.35278 0.35278 0 0.19508-0.15769 0.35278-0.35278 0.35278"/><path d="m40.808 149.23c0 0.19508-0.15769 0.35278-0.35278 0.35278-0.19509 0-0.35278-0.1577-0.35278-0.35278 0-0.19509 0.15769-0.35278 0.35278-0.35278 0.19509 0 0.35278 0.15769 0.35278 0.35278"/><path d="m37.246 152.96c-0.13794 0-0.26952-0.0818-0.32597-0.21766-0.07408-0.18027 0.01129-0.38665 0.19121-0.46073l2.2811-0.94509c0.17921-0.0737 0.38664 0.0109 0.46108 0.19085 0.07444 0.18027-0.01094 0.38664-0.19085 0.46073l-2.2814 0.94509c-0.0441 0.0183-0.08996 0.0268-0.13511 0.0268"/><path d="m41.157 150.98c0.07479 0.17991-0.01058 0.38629-0.19085 0.46072-0.17992 0.0748-0.38594-0.0106-0.46073-0.19085-0.07444-0.17991 0.01094-0.38629 0.19085-0.46073 0.17992-0.0744 0.38629 0.0109 0.46073 0.19086"/><path d="m39.158 155.82c-0.09031 0-0.18027-0.0346-0.24941-0.10336-0.13758-0.13794-0.13758-0.36125 0-0.49883l1.7462-1.7466c0.13794-0.13759 0.36124-0.13759 0.49883 0 0.13794 0.13793 0.13794 0.36124 0 0.49918l-1.7462 1.7462c-0.06879 0.0688-0.1591 0.10336-0.24941 0.10336"/><path d="m42.152 152.47c0.13758 0.13794 0.13758 0.36125 0 0.49883-0.13794 0.13793-0.36124 0.13793-0.49883 0-0.13794-0.13758-0.13794-0.36089 0-0.49883 0.13758-0.13758 0.36089-0.13758 0.49883 0"/><path d="m51.631 155.82c-0.09031 0-0.18062-0.0346-0.24941-0.10336l-1.7462-1.7462c-0.13794-0.13794-0.13794-0.36125 0-0.49918 0.13758-0.13759 0.36089-0.13759 0.49883 0l1.7462 1.7466c0.13758 0.13758 0.13758 0.36089 0 0.49883-0.06914 0.0688-0.1591 0.10336-0.24941 0.10336"/><path d="m48.637 152.47c0.13794-0.13758 0.36124-0.13758 0.49883 0 0.13794 0.13794 0.13794 0.36125 0 0.49883-0.13758 0.13793-0.36089 0.13793-0.49883 0-0.13758-0.13758-0.13758-0.36089 0-0.49883"/><path d="m53.542 152.96c-0.04515 0-0.09102-8e-3 -0.13511-0.0268l-2.2814-0.9451c-0.17992-0.0741-0.26529-0.28046-0.19085-0.46073 0.07444-0.17992 0.28152-0.26494 0.46108-0.19085l2.2811 0.94509c0.17992 0.0741 0.26529 0.28046 0.19121 0.46073-0.05644 0.13582-0.18803 0.21766-0.32597 0.21766"/><path d="m49.632 150.98c0.07444-0.17992 0.28081-0.26529 0.46073-0.19086 0.17992 0.0744 0.26529 0.28082 0.19085 0.46073-0.07479 0.18027-0.28081 0.26564-0.46073 0.19085-0.18027-0.0744-0.26564-0.28081-0.19085-0.46072"/><path d="m54.214 149.58h-2.4694c-0.19509 0-0.35278-0.1577-0.35278-0.35278 0-0.19509 0.15769-0.35278 0.35278-0.35278h2.4694c0.19509 0 0.35278 0.15769 0.35278 0.35278 0 0.19508-0.15769 0.35278-0.35278 0.35278"/><path d="m49.98 149.23c0-0.19509 0.15769-0.35278 0.35278-0.35278s0.35278 0.15769 0.35278 0.35278c0 0.19508-0.15769 0.35278-0.35278 0.35278s-0.35278-0.1577-0.35278-0.35278"/><path d="m51.261 147.15c-0.13829 0-0.26988-0.0819-0.32597-0.21767-0.07444-0.18026 0.01093-0.38664 0.19085-0.46108l2.2814-0.94473c0.17886-0.0737 0.38664 0.0106 0.46108 0.19085 0.07408 0.18027-0.01129 0.38629-0.19121 0.46073l-2.2811 0.94509c-0.0441 0.0183-0.08996 0.0268-0.13511 0.0268"/><path d="m49.632 147.47c-0.07479-0.17992 0.01058-0.38629 0.19085-0.46073 0.17992-0.0748 0.38594 0.0109 0.46073 0.19085 0.07444 0.17957-0.01093 0.38594-0.19085 0.46073-0.17992 0.0744-0.38629-0.0109-0.46073-0.19085"/><path d="m49.884 145.09c-0.09031 0-0.18062-0.0342-0.24941-0.10336-0.13794-0.13759-0.13794-0.3609 0-0.49883l1.7462-1.7462c0.13758-0.13759 0.36089-0.13759 0.49883 0 0.13758 0.13793 0.13758 0.36124 0 0.49883l-1.7462 1.7462c-0.06914 0.0691-0.15946 0.10336-0.24941 0.10336"/><path d="m48.637 145.99c-0.13758-0.13793-0.13758-0.36124 0-0.49882 0.13794-0.13794 0.36124-0.13794 0.49883 0 0.13794 0.13758 0.13794 0.36089 0 0.49882-0.13758 0.13759-0.36089 0.13759-0.49883 0"/><path d="m40.904 145.09c-0.08996 0-0.18027-0.0342-0.24941-0.10336l-1.7462-1.7462c-0.13758-0.13759-0.13758-0.3609 0-0.49883 0.13794-0.13759 0.36124-0.13759 0.49883 0l1.7462 1.7462c0.13794 0.13793 0.13794 0.36124 0 0.49883-0.06879 0.0691-0.1591 0.10336-0.24941 0.10336"/><path d="m42.152 145.99c-0.13794 0.13759-0.36124 0.13759-0.49883 0-0.13794-0.13793-0.13794-0.36124 0-0.49882 0.13758-0.13794 0.36089-0.13794 0.49883 0 0.13758 0.13758 0.13758 0.36089 0 0.49882"/><path d="m39.528 147.15c-0.04516 0-0.09102-8e-3 -0.13511-0.0268l-2.2811-0.94509c-0.17992-0.0744-0.26529-0.28046-0.19121-0.46073 0.07444-0.18027 0.28187-0.26494 0.46108-0.19085l2.2814 0.94473c0.17992 0.0744 0.26529 0.28082 0.19085 0.46108-0.05609 0.13582-0.18768 0.21767-0.32597 0.21767"/><path d="m41.157 147.47c-0.07444 0.17991-0.28081 0.26529-0.46073 0.19085-0.17992-0.0748-0.26529-0.28116-0.19085-0.46073 0.07479-0.17991 0.28081-0.26564 0.46073-0.19085 0.18027 0.0744 0.26564 0.28081 0.19085 0.46073"/></g><path d="m43.983 148.17c-0.19509 0-0.35278-0.15769-0.35278-0.35277v-1.4111c0-0.19508 0.15769-0.35277 0.35278-0.35277 0.19509 0 0.35278 0.15769 0.35278 0.35277v1.4111c0 0.19508-0.15769 0.35277-0.35278 0.35277" fill="#fff"/><path d="m46.805 152.4c-0.19509 0-0.35278-0.15769-0.35278-0.35278v-1.4111c0-0.19509 0.15769-0.35278 0.35278-0.35278s0.35278 0.15769 0.35278 0.35278v1.4111c0 0.19509-0.15769 0.35278-0.35278 0.35278" fill="#fff"/></g></svg>
